<?xml version="1.0" encoding="UTF-8" standalone="no"?>
<!-- Created with Inkscape (http://www.inkscape.org/) -->

<svg
   xmlns:dc="http://purl.org/dc/elements/1.1/"
   xmlns:cc="http://creativecommons.org/ns#"
   xmlns:rdf="http://www.w3.org/1999/02/22-rdf-syntax-ns#"
   xmlns:svg="http://www.w3.org/2000/svg"
   xmlns="http://www.w3.org/2000/svg"
   xmlns:sodipodi="http://sodipodi.sourceforge.net/DTD/sodipodi-0.dtd"
   xmlns:inkscape="http://www.inkscape.org/namespaces/inkscape"
   width="63.487213mm"
   height="22.258158mm"
   viewBox="0 0 63.487213 22.258158"
   version="1.1"
   id="svg1796"
   inkscape:version="0.92.3 (2405546, 2018-03-11)"
   sodipodi:docname="logo.svg">
  <defs
     id="defs1790">
    <clipPath
       clipPathUnits="userSpaceOnUse"
       id="clipPath1325">
      <path
         d="m 219.155,283.196 h 61.294 v -2.015 h -61.294 z"
         id="path1323"
         inkscape:connector-curvature="0" />
    </clipPath>
  </defs>
  <sodipodi:namedview
     id="base"
     pagecolor="#ffffff"
     bordercolor="#666666"
     borderopacity="1.0"
     inkscape:pageopacity="0.0"
     inkscape:pageshadow="2"
     inkscape:zoom="2.5069028"
     inkscape:cx="-41.49136"
     inkscape:cy="13.633534"
     inkscape:document-units="mm"
     inkscape:current-layer="g1594"
     showgrid="false"
     fit-margin-top="1"
     fit-margin-left="1"
     fit-margin-right="1"
     fit-margin-bottom="1"
     inkscape:window-width="1918"
     inkscape:window-height="1059"
     inkscape:window-x="1920"
     inkscape:window-y="19"
     inkscape:window-maximized="0" />
  <metadata
     id="metadata1793">
    <rdf:RDF>
      <cc:Work
         rdf:about="">
        <dc:format>image/svg+xml</dc:format>
        <dc:type
           rdf:resource="http://purl.org/dc/dcmitype/StillImage" />
        <dc:title />
      </cc:Work>
    </rdf:RDF>
  </metadata>
  <g
     inkscape:label="Layer 1"
     inkscape:groupmode="layer"
     id="layer1"
     transform="translate(-37.91465,-109.00116)">
    <g
       transform="matrix(0.35277777,0,0,-0.35277777,-35.028594,229.45372)"
       id="g1594">
      <g
         id="g878"
         transform="translate(85.551969,55.226505)">
        <g
           style="fill:#083d91;fill-opacity:1"
           id="g1247"
           transform="translate(195.9562,277.3228)">
          <path
             d="M 0,0 H 4.3 V -1.605 H 1.638 V -3.176 H 4.3 V -4.758 H 1.638 V -8.65 H 0 Z"
             style="fill:#083d91;fill-opacity:1;fill-rule:nonzero;stroke:none"
             id="path1249"
             inkscape:connector-curvature="0" />
        </g>
        <g
           style="fill:#083d91;fill-opacity:1"
           id="g1251"
           transform="translate(208.3093,273.942)">
          <path
             d="M 0,0 H 0.517 C 1.042,0 1.403,0.068 1.599,0.205 1.797,0.344 1.897,0.572 1.897,0.89 1.897,1.079 1.848,1.243 1.75,1.383 1.651,1.523 1.52,1.623 1.357,1.683 1.192,1.744 0.89,1.776 0.452,1.776 H 0 Z M -1.65,3.381 H 0.098 C 1.055,3.381 1.737,3.296 2.143,3.125 2.549,2.955 2.875,2.671 3.122,2.276 3.369,1.878 3.492,1.41 3.492,0.87 3.492,0.301 3.356,-0.175 3.083,-0.556 2.81,-0.939 2.4,-1.228 1.849,-1.423 L 3.902,-5.269 H 2.099 L 0.15,-1.607 H 0 v -3.662 h -1.65 z"
             style="fill:#083d91;fill-opacity:1;fill-rule:nonzero;stroke:none"
             id="path1253"
             inkscape:connector-curvature="0" />
        </g>
        <g
           style="fill:#083d91;fill-opacity:1"
           id="g1255"
           transform="translate(218.3116,277.3228)">
          <path
             d="m 0,0 h 1.656 v -5.594 c 0,-0.481 0.042,-0.822 0.125,-1.022 0.086,-0.199 0.224,-0.359 0.419,-0.479 0.194,-0.119 0.43,-0.18 0.704,-0.18 0.29,0 0.54,0.067 0.751,0.201 0.21,0.133 0.356,0.302 0.437,0.507 0.079,0.207 0.12,0.599 0.12,1.179 V 0 h 1.655 v -5.158 c 0,-0.87 -0.049,-1.474 -0.147,-1.81 C 5.622,-7.305 5.434,-7.631 5.157,-7.945 4.881,-8.258 4.561,-8.49 4.2,-8.641 3.839,-8.792 3.418,-8.868 2.939,-8.868 c -0.627,0 -1.175,0.144 -1.64,0.433 C 0.834,-8.147 0.501,-7.786 0.301,-7.354 0.1,-6.921 0,-6.188 0,-5.158 Z"
             style="fill:#083d91;fill-opacity:1;fill-rule:nonzero;stroke:none"
             id="path1257"
             inkscape:connector-curvature="0" />
        </g>
        <g
           style="fill:#083d91;fill-opacity:1"
           id="g1259"
           transform="translate(230.9248,277.3228)">
          <path
             d="M 0,0 H 4.73 V -1.611 H 1.637 V -3.176 H 4.73 V -4.758 H 1.637 V -7.033 H 4.73 V -8.65 H 0 Z"
             style="fill:#083d91;fill-opacity:1;fill-rule:nonzero;stroke:none"
             id="path1261"
             inkscape:connector-curvature="0" />
        </g>
        <g
           style="fill:#083d91;fill-opacity:1"
           id="g1263"
           transform="translate(242.0223,277.3228)">
          <path
             d="M 0,0 H 1.582 L 5.289,-5.693 V 0 h 1.65 V -8.65 H 5.352 L 1.65,-2.976 V -8.65 H 0 Z"
             style="fill:#083d91;fill-opacity:1;fill-rule:nonzero;stroke:none"
             id="path1265"
             inkscape:connector-curvature="0" />
        </g>
        <g
           style="fill:#083d91;fill-opacity:1"
           id="g1267"
           transform="translate(257.4095,275.735)">
          <path
             d="m 0,0 v -5.457 h 0.766 c 0.754,0 1.302,0.087 1.641,0.259 0.34,0.173 0.617,0.463 0.834,0.871 0.215,0.409 0.323,0.91 0.323,1.507 0,0.919 -0.257,1.631 -0.771,2.137 C 2.329,-0.228 1.585,0 0.561,0 Z M -1.637,1.588 H 0.316 C 1.576,1.588 2.513,1.432 3.124,1.12 3.736,0.808 4.24,0.302 4.636,-0.4 5.032,-1.102 5.232,-1.922 5.232,-2.858 5.232,-3.524 5.12,-4.136 4.898,-4.696 4.677,-5.255 4.371,-5.717 3.98,-6.086 3.59,-6.454 3.167,-6.71 2.712,-6.85 2.257,-6.991 1.468,-7.062 0.347,-7.062 h -1.984 z"
             style="fill:#083d91;fill-opacity:1;fill-rule:nonzero;stroke:none"
             id="path1269"
             inkscape:connector-curvature="0" />
        </g>
        <g
           style="fill:#083d91;fill-opacity:1"
           id="g1271"
           transform="translate(269.0387,277.3228)">
          <path
             d="M 0,0 H 1.649 V -7.08 H 4.053 V -8.65 H 0 Z"
             style="fill:#083d91;fill-opacity:1;fill-rule:nonzero;stroke:none"
             id="path1273"
             inkscape:connector-curvature="0" />
        </g>
        <g
           style="fill:#083d91;fill-opacity:1"
           id="g1275"
           transform="translate(282.6603,275.0285)">
          <path
             d="M 0,0 -1.162,-2.969 H 1.156 Z M -0.847,2.294 H 0.826 L 4.16,-6.356 H 2.445 l -0.678,1.782 h -3.535 l -0.706,-1.782 h -1.713 z"
             style="fill:#083d91;fill-opacity:1;fill-rule:nonzero;stroke:none"
             id="path1277"
             inkscape:connector-curvature="0" />
        </g>
        <g
           style="fill:#083d91;fill-opacity:1"
           id="g1279"
           transform="translate(294.5684,272.4597)">
          <path
             d="m 0,0 v -2.216 h 0.415 c 0.684,0 1.145,0.085 1.384,0.258 0.238,0.172 0.358,0.424 0.358,0.753 0,0.371 -0.14,0.666 -0.42,0.881 C 1.458,-0.108 0.993,0 0.344,0 Z M 0,3.293 V 1.469 h 0.361 c 0.402,0 0.701,0.086 0.896,0.253 C 1.452,1.891 1.55,2.121 1.55,2.411 1.55,2.682 1.456,2.895 1.271,3.054 1.086,3.213 0.805,3.293 0.426,3.293 Z m -1.649,-7.08 v 8.65 h 1.363 C 0.504,4.863 1.082,4.811 1.448,4.71 1.966,4.573 2.38,4.317 2.686,3.946 2.992,3.573 3.145,3.134 3.145,2.628 3.145,2.299 3.076,2 2.937,1.731 2.797,1.464 2.57,1.211 2.257,0.977 2.783,0.73 3.167,0.42 3.411,0.051 3.654,-0.321 3.777,-0.759 3.777,-1.264 3.777,-1.751 3.651,-2.193 3.398,-2.593 3.147,-2.994 2.823,-3.293 2.426,-3.489 2.029,-3.689 1.481,-3.787 0.78,-3.787 Z"
             style="fill:#083d91;fill-opacity:1;fill-rule:nonzero;stroke:none"
             id="path1281"
             inkscape:connector-curvature="0" />
        </g>
      </g>
      <g
         transform="translate(274.6456,315.9232)"
         id="g1283">
        <path
           inkscape:connector-curvature="0"
           id="path1285"
           style="fill:#a7a9ac;fill-opacity:1;fill-rule:nonzero;stroke:none"
           d="M 0,0 C -0.109,0.588 -0.239,1.168 -0.384,1.742 L -0.39,0.383 C -0.258,0.256 -0.13,0.128 0,0" />
      </g>
      <g
         transform="translate(271.9214,306.3766)"
         id="g1287"
         style="fill:#5e9bff;fill-opacity:1">
        <path
           inkscape:connector-curvature="0"
           id="path1289"
           style="fill:#5e9bff;fill-opacity:1;fill-rule:nonzero"
           d="m 0,0 c 0,-0.135 0.019,-0.264 0.04,-0.393 l -2.467,-0.61 c -0.196,0.454 -0.646,0.772 -1.172,0.772 -0.025,0 -0.045,-0.012 -0.069,-0.014 L -4.916,5.331 -2.387,5.72 0.775,1.803 C 0.299,1.348 0,0.71 0,0 m -3.242,-6.551 0.549,-4.884 c -0.113,-0.03 -0.22,-0.06 -0.32,-0.113 l -3.641,5.095 z m -0.488,-5.793 -4.174,0.945 c 0.015,0.111 0.034,0.222 0.034,0.337 0,0.758 -0.349,1.429 -0.887,1.882 l 1.758,2.492 3.639,-5.094 c -0.164,-0.156 -0.288,-0.346 -0.37,-0.562 m -0.419,9.693 c 0.147,-0.072 0.309,-0.113 0.482,-0.123 l 0.377,-3.357 -3.249,0.093 z m -11.494,-17.669 -2.792,0.921 0.315,3.113 c 0.016,0 0.032,-0.005 0.049,-0.005 0.618,0 1.178,0.228 1.62,0.593 l 2.136,-2.193 z m -3.198,1.055 -0.977,0.322 1.045,2.762 c 0.079,-0.023 0.156,-0.048 0.238,-0.063 z m -2.628,-2.856 c -0.046,0.006 -0.088,0.027 -0.136,0.027 -0.038,0 -0.071,-0.018 -0.108,-0.022 l -1.313,3.792 2.661,-0.878 z m -0.753,-0.21 -7.444,5.728 c 0.082,0.126 0.157,0.257 0.216,0.398 l 5.924,-1.954 1.418,-4.095 c -0.039,-0.024 -0.079,-0.048 -0.114,-0.077 m -17.329,7.433 1.823,3.636 c 0.157,-0.053 0.319,-0.099 0.494,-0.099 0.005,0 0.01,0.002 0.015,0.003 l 0.524,-3.574 z m 0.852,5.52 -6.797,1.014 c 0.001,0.036 0.01,0.07 0.01,0.106 0,0.769 -0.409,1.437 -1.018,1.814 l 2.135,4.367 c 0.211,-0.077 0.432,-0.135 0.67,-0.135 0.336,0 0.638,0.105 0.915,0.252 l 4.524,-6.704 c -0.212,-0.19 -0.356,-0.435 -0.439,-0.714 M 2.726,3.832 C 2.589,3.941 2.448,4.049 2.309,4.157 L 2.302,2.48 C 1.859,2.445 1.445,2.305 1.098,2.069 l -3.007,3.724 1.678,0.258 C -0.395,6.168 -0.56,6.283 -0.726,6.398 L -2.212,6.17 -4.237,8.678 c -0.349,0.21 -0.69,0.425 -1.044,0.628 l 2.59,-3.21 -2.317,-0.356 -0.753,3.366 c 0.161,0.054 0.314,0.123 0.454,0.213 -0.97,0.553 -1.956,1.086 -2.966,1.578 0.336,-0.524 0.633,-1.072 0.911,-1.63 0.288,-0.159 0.602,-0.275 0.955,-0.275 0.082,0 0.159,0.015 0.238,0.024 l 0.747,-3.34 -0.61,-0.093 C -6,5.446 -5.956,5.313 -5.927,5.176 l 0.597,0.091 1.252,-5.594 C -4.294,-0.415 -4.465,-0.57 -4.603,-0.754 l -1.091,0.563 C -5.711,-0.339 -5.729,-0.486 -5.75,-0.634 l 0.95,-0.49 c -0.039,-0.123 -0.077,-0.248 -0.077,-0.385 0,-0.023 0.011,-0.042 0.013,-0.065 l -1.095,-0.241 c -0.032,-0.152 -0.067,-0.302 -0.103,-0.452 l 1.281,0.283 c 0.065,-0.164 0.16,-0.311 0.284,-0.433 l -2.505,-3.548 -0.244,0.34 c -0.129,-0.27 -0.262,-0.537 -0.404,-0.799 l 0.318,-0.009 -1.767,-2.504 c -0.048,0.028 -0.104,0.041 -0.153,0.066 -0.967,-1.219 -2.1,-2.285 -3.349,-3.192 h 0.003 c 0.192,-0.432 0.502,-0.799 0.892,-1.058 l -2.398,-4.385 -2.046,2.1 c 0.382,0.44 0.622,1.005 0.632,1.631 -1.465,-0.673 -3.032,-1.138 -4.66,-1.373 0.255,-0.377 0.597,-0.69 1.012,-0.888 l -1.051,-2.775 -2.981,0.983 -0.892,2.573 c -0.153,0.013 -0.308,0.039 -0.462,0.057 l 0.854,-2.465 -5.628,1.857 c 0.047,0.195 0.079,0.397 0.079,0.607 0,0.022 -0.006,0.042 -0.006,0.064 l 2.701,0.288 c -0.38,0.09 -0.756,0.187 -1.124,0.301 l -1.619,-0.172 c -0.068,0.357 -0.229,0.672 -0.428,0.959 -0.738,0.339 -1.456,0.71 -2.128,1.144 -1.337,-0.01 -2.421,-1.037 -2.543,-2.345 l -1.877,0.023 -0.537,3.662 c 0.48,0.14 0.858,0.487 1.023,0.956 l 1.391,-0.285 c -0.177,0.169 -0.339,0.353 -0.508,0.53 l -0.8,0.164 c 0.002,0.035 0.02,0.065 0.02,0.1 0,0.439 -0.185,0.83 -0.477,1.113 l 0.035,0.047 c -0.088,0.115 -0.181,0.226 -0.266,0.344 l -0.116,-0.157 c -0.141,0.076 -0.294,0.12 -0.457,0.15 l 0.034,0.806 c -0.133,0.206 -0.269,0.409 -0.392,0.62 l -0.059,-1.4 c -0.19,-0.019 -0.369,-0.062 -0.533,-0.143 l -4.524,6.704 c 0.14,0.118 0.249,0.257 0.352,0.41 l 3.088,-1.628 c -0.053,0.185 -0.11,0.368 -0.157,0.555 l -2.71,1.429 c 0.075,0.189 0.109,0.396 0.123,0.609 l 2.197,0.099 c -0.016,0.138 -0.02,0.279 -0.033,0.418 l -2.2,-0.1 c -0.11,0.704 -0.558,1.288 -1.203,1.54 l 1.187,4.341 c 0.051,-0.006 0.096,-0.03 0.149,-0.03 0.429,0 0.795,0.21 1.046,0.519 l 1.397,-0.807 c 0.033,0.142 0.067,0.283 0.103,0.423 l -1.28,0.74 c 0.049,0.127 0.073,0.265 0.082,0.407 l 1.598,0.149 c 0.051,0.147 0.107,0.291 0.162,0.436 l -1.81,-0.169 c -0.053,0.202 -0.139,0.385 -0.271,0.54 l 2.533,2.938 1.162,-0.137 c 0.084,0.13 0.162,0.264 0.25,0.391 l -1.083,0.127 0.239,0.278 c 0.258,-0.182 0.559,-0.298 0.882,-0.354 0.437,0.63 0.913,1.228 1.426,1.79 -0.927,-0.299 -1.838,-0.643 -2.74,-1.005 0.041,-0.051 0.071,-0.11 0.116,-0.158 l -0.424,-0.491 -0.983,0.116 c -0.246,-0.108 -0.488,-0.223 -0.732,-0.335 l 1.386,-0.163 -2.353,-2.73 c -0.133,0.083 -0.277,0.138 -0.436,0.171 l 0.097,2.108 c -0.143,-0.071 -0.286,-0.143 -0.429,-0.215 L -41.792,8.618 C -41.976,8.597 -42.145,8.544 -42.3,8.457 l -0.953,1.215 c -0.124,-0.068 -0.248,-0.136 -0.371,-0.205 l 0.988,-1.258 C -42.74,8.097 -42.829,7.971 -42.892,7.83 l -2.44,0.647 c -0.163,-0.098 -0.321,-0.203 -0.483,-0.303 l 2.834,-0.752 c -0.006,-0.048 -0.029,-0.09 -0.029,-0.14 0,-0.555 0.335,-1.028 0.81,-1.241 l -1.19,-4.352 c -0.104,0.017 -0.199,0.062 -0.309,0.062 -0.221,0 -0.424,-0.059 -0.623,-0.125 l -2.67,5.805 C -47.11,7.354 -47.229,7.28 -47.346,7.202 l 2.649,-5.759 C -44.82,1.369 -44.946,1.302 -45.05,1.205 l -4.881,4.194 c -0.115,-0.084 -0.231,-0.168 -0.346,-0.252 l 4.975,-4.275 c -0.12,-0.175 -0.211,-0.36 -0.271,-0.569 l -6.577,1.128 c 0.016,-0.147 0.048,-0.289 0.067,-0.436 l 6.427,-1.103 c -0.003,-0.043 -0.025,-0.079 -0.025,-0.123 0,-0.227 0.059,-0.437 0.13,-0.64 l -5.595,-2.633 c 0.04,-0.135 0.077,-0.272 0.12,-0.407 l 5.665,2.666 c 0.159,-0.259 0.368,-0.47 0.624,-0.632 l -2.143,-4.384 c -0.232,0.087 -0.481,0.141 -0.743,0.141 -0.474,0 -0.908,-0.159 -1.262,-0.42 l -1.99,2.216 c 0.119,-0.356 0.253,-0.705 0.386,-1.054 l 1.294,-1.441 c -0.17,-0.185 -0.305,-0.401 -0.402,-0.636 0.478,-1.002 1.009,-1.972 1.6,-2.903 0.122,-0.021 0.246,-0.037 0.374,-0.037 0.133,0 0.263,0.015 0.39,0.039 l 0.543,-1.877 c 0.216,-0.285 0.451,-0.552 0.675,-0.828 l -0.817,2.821 c 0.63,0.252 1.107,0.795 1.275,1.462 l 6.776,-1.011 c -10e-4,-0.007 -0.005,-0.013 -0.005,-0.021 0,-0.53 0.284,-0.976 0.69,-1.255 l -1.918,-3.828 -3.721,0.044 c -0.099,0.992 -0.908,1.777 -1.925,1.777 -0.106,0 -0.198,-0.038 -0.296,-0.06 0.677,-0.827 1.383,-1.628 2.152,-2.369 0.02,0.078 0.049,0.151 0.06,0.234 l 3.522,-0.042 -1.14,-2.273 c 0.113,-0.086 0.226,-0.17 0.34,-0.254 l 1.263,2.522 3.125,-0.037 0.811,-5.527 c 0.154,-0.069 0.299,-0.154 0.454,-0.219 l -0.841,5.741 1.81,-0.022 c 0.068,-0.976 0.668,-1.803 1.521,-2.182 l -1.376,-3.945 c 0.131,-0.049 0.262,-0.097 0.394,-0.144 l 1.379,3.957 c 0.209,-0.055 0.424,-0.093 0.65,-0.093 0.214,0 0.419,0.034 0.618,0.083 l 1.718,-5.115 c 0.154,-0.028 0.31,-0.046 0.464,-0.071 l -1.784,5.312 c 0.344,0.147 0.643,0.372 0.891,0.645 l 7.442,-5.727 c -0.044,-0.094 -0.064,-0.197 -0.076,-0.304 l -2.67,-0.285 c 0.226,-0.006 0.446,-0.034 0.673,-0.034 1.328,0 2.624,0.125 3.902,0.305 -0.033,0.295 -0.186,0.549 -0.423,0.706 l 1.111,2.936 1.082,-0.357 -0.31,-3.062 c 0.143,0.028 0.286,0.056 0.428,0.086 l 0.288,2.842 2.631,-0.868 -0.779,-1.424 c 0.191,0.057 0.382,0.113 0.571,0.173 l 0.611,1.118 1.285,-0.424 c 0.201,0.081 0.403,0.157 0.601,0.242 l -1.682,0.555 1.23,2.249 2.004,-2.056 c 0.131,0.066 0.268,0.123 0.398,0.192 l -2.192,2.249 2.46,4.499 c 0.3,-0.132 0.63,-0.209 0.979,-0.211 l 0.429,-5.555 c 0.133,0.082 0.271,0.159 0.402,0.244 l -0.413,5.349 c 0.924,0.151 1.667,0.811 1.946,1.686 l 4.184,-0.947 c -0.004,-0.043 -0.025,-0.08 -0.025,-0.123 0,-0.299 0.11,-0.56 0.26,-0.794 0.614,0.708 1.194,1.444 1.734,2.212 -0.138,0.049 -0.282,0.087 -0.437,0.091 l -0.54,4.805 3.685,-0.106 c 0.061,0.139 0.132,0.273 0.191,0.413 l -3.923,0.113 -0.386,3.425 c 0.239,0.069 0.446,0.192 0.605,0.374 L 1.537,-4.94 c 0.048,0.133 0.1,0.266 0.147,0.401 l -4.103,2.544 c 0.062,0.15 0.098,0.314 0.098,0.486 0,0.034 -0.016,0.063 -0.019,0.097 l 2.482,0.613 C 0.456,-1.723 1.293,-2.384 2.3,-2.468 2.706,-0.9 2.982,0.716 3.108,2.379 2.978,2.411 2.857,2.466 2.72,2.478 Z" />
      </g>
      <g
         transform="translate(241.0957,334.7777)"
         id="g1291"
         style="fill:#5e9bff;fill-opacity:1">
        <path
           inkscape:connector-curvature="0"
           id="path1293"
           style="fill:#5e9bff;fill-opacity:1;fill-rule:nonzero;stroke:none"
           d="M 0,0 2.188,-3.529 C 1.79,-3.861 1.522,-4.341 1.522,-4.9 c 0,-0.005 0.002,-0.009 0.002,-0.013 L -8.504,-6.19 c -0.033,0.125 -0.066,0.244 -0.124,0.356 z M 3.056,2.066 5.521,0.543 3.829,-3.191 c -0.161,0.047 -0.321,0.1 -0.498,0.1 -0.289,0 -0.553,-0.082 -0.795,-0.203 L 0.348,0.235 Z M 5.881,0.32 8.174,-1.097 4.638,-3.661 c -0.12,0.127 -0.269,0.219 -0.422,0.307 z M 7.436,3.751 C 7.636,3.684 7.846,3.64 8.068,3.637 L 8.439,-0.769 6.055,0.704 Z M 8.49,-1.382 8.658,-3.378 5.013,-4.265 C 4.977,-4.171 4.921,-4.093 4.871,-4.007 Z M 8.805,-5.121 5.128,-4.835 C 5.126,-4.778 5.103,-4.73 5.095,-4.675 L 8.694,-3.8 Z m 4.338,7.114 3.471,-2.399 c -0.139,-0.26 -0.239,-0.543 -0.239,-0.86 0,-0.079 0.036,-0.147 0.045,-0.224 l -4.89,-1.189 -2.607,1.611 z m 4.224,-4.872 -0.486,-1.229 c -0.16,0.043 -0.317,0.099 -0.492,0.099 -0.613,0 -1.134,-0.308 -1.483,-0.757 l -2.876,1.778 4.473,1.088 c 0.158,-0.427 0.467,-0.766 0.864,-0.979 m 0.862,-0.24 c 0.161,0 0.304,0.053 0.453,0.092 l 0.57,-1.482 -1.213,-0.502 c -0.179,0.323 -0.44,0.583 -0.765,0.757 l 0.485,1.23 c 0.154,-0.041 0.303,-0.095 0.47,-0.095 m 1.261,0.51 1.427,-1.21 -1.28,-0.53 -0.562,1.46 c 0.15,0.078 0.293,0.165 0.415,0.28 m -4.94,-2.959 -5.321,0.414 -0.122,1.455 2.352,0.572 3.213,-1.986 C 14.605,-5.254 14.58,-5.411 14.55,-5.568 m -5.623,4.006 2.032,-1.256 -1.888,-0.46 z m 14.769,-1.56 1.378,-3.17 C 24.959,-6.36 24.841,-6.424 24.743,-6.515 l -3.032,2.571 z m -38.299,-8.361 c 0.142,0.07 0.288,0.136 0.431,0.205 l 0.058,1.032 0.971,-0.543 c 0.155,0.072 0.305,0.149 0.462,0.22 l -1.407,0.787 0.2,3.538 2.058,-0.317 c 0,-0.017 -0.009,-0.031 -0.009,-0.048 0,-0.836 0.612,-1.5 1.406,-1.648 l -0.064,-1.389 c 0.143,0.058 0.283,0.121 0.427,0.178 l 0.054,1.172 c 0.185,0.013 0.366,0.041 0.53,0.107 l 0.497,-0.87 c 0.132,0.05 0.266,0.095 0.399,0.143 l -0.544,0.954 c 0.116,0.086 0.22,0.177 0.311,0.289 l 1.362,-0.839 c 0.17,0.057 0.335,0.124 0.505,0.18 l -1.633,1.006 c 0.103,0.22 0.169,0.459 0.169,0.717 0,0.003 -10e-4,0.006 -10e-4,0.009 l 10.028,1.276 c 0.07,-0.282 0.189,-0.537 0.373,-0.75 L 1.723,-6.368 c 0.945,0.114 1.895,0.186 2.849,0.228 0.051,0.051 0.117,0.085 0.162,0.143 l 0.203,-0.12 c 0.26,0.009 0.519,0.021 0.779,0.024 l -0.749,0.442 c 0.058,0.125 0.076,0.264 0.104,0.402 l 3.77,-0.293 0.056,-0.665 C 9.038,-6.219 9.18,-6.246 9.322,-6.259 l -0.057,0.684 5.226,-0.407 c 0.006,-0.159 0.05,-0.306 0.092,-0.453 l -1.19,-0.488 c 0.238,-0.055 0.48,-0.098 0.716,-0.158 l 0.628,0.257 c 0.133,-0.241 0.324,-0.433 0.543,-0.593 0.442,-0.131 0.885,-0.262 1.32,-0.41 v 0.039 c 0.251,0.029 0.481,0.099 0.693,0.216 l 0.483,-0.689 c 0.239,-0.091 0.475,-0.188 0.711,-0.284 l -0.846,1.207 c 0.397,0.35 0.659,0.847 0.659,1.418 0,0.185 -0.056,0.352 -0.105,0.521 l 1.207,0.499 1.893,-4.922 c 0.181,-0.092 0.369,-0.172 0.549,-0.267 l -2.057,5.349 1.49,0.616 3.213,-2.725 c -0.191,-0.287 -0.329,-0.611 -0.329,-0.981 0,-0.319 0.105,-0.603 0.249,-0.863 l -2.214,-1.59 c 0.135,-0.073 0.265,-0.154 0.4,-0.229 l 2.048,1.472 c 0.223,-0.244 0.511,-0.407 0.838,-0.501 l -0.401,-2.463 c 0.128,-0.082 0.255,-0.166 0.382,-0.25 l 0.427,2.63 c 0.029,-10e-4 0.052,-0.016 0.081,-0.016 0.409,0 0.768,0.161 1.071,0.39 l 1.333,-1.393 -1.572,-2.516 c 0.114,-0.082 0.224,-0.169 0.338,-0.251 l 1.533,2.455 3.515,-3.674 c -0.193,-0.255 -0.328,-0.557 -0.328,-0.902 0,-0.034 0.017,-0.063 0.019,-0.096 l -1.514,-0.311 c 0.136,-0.115 0.276,-0.226 0.41,-0.342 l 1.187,0.244 c 0.182,-0.512 0.627,-0.874 1.175,-0.966 -0.26,1.012 -0.571,2.001 -0.938,2.965 l -3.298,3.446 0.88,1.409 c -0.084,0.132 -0.159,0.27 -0.244,0.401 l -0.936,-1.497 -1.255,1.312 c 0.258,0.313 0.433,0.698 0.433,1.136 0,0.101 -0.041,0.188 -0.057,0.284 l 0.78,0.224 c -0.09,0.119 -0.177,0.239 -0.268,0.357 l -0.595,-0.17 c -0.109,0.262 -0.289,0.477 -0.501,0.66 l 0.327,0.484 c -0.093,0.109 -0.195,0.21 -0.29,0.318 l -0.384,-0.568 c -0.25,0.129 -0.521,0.22 -0.821,0.22 -0.183,0 -0.348,-0.053 -0.514,-0.103 l -1.374,3.161 0.26,0.108 c -0.117,0.101 -0.224,0.213 -0.342,0.312 l -0.085,-0.035 -0.071,0.162 c -0.217,0.178 -0.452,0.333 -0.675,0.505 l 0.36,-0.827 -2.178,-0.902 -1.61,1.365 c 0.198,0.295 0.34,0.628 0.34,1.009 0,0.025 -0.013,0.046 -0.014,0.071 l 1.859,0.213 c -0.182,0.125 -0.373,0.237 -0.558,0.358 l -1.384,-0.16 c -0.172,0.622 -0.639,1.095 -1.259,1.272 l 0.06,0.366 C 18.657,0.919 18.525,0.979 18.395,1.043 L 18.318,0.57 c -0.032,0.002 -0.058,0.018 -0.089,0.018 -0.557,0 -1.041,-0.257 -1.38,-0.646 l -3.347,2.312 0.632,0.458 C 13.961,2.762 13.783,2.799 13.61,2.846 L 13.139,2.505 12.072,3.242 C 11.747,3.311 11.414,3.356 11.085,3.414 L 12.779,2.244 8.846,-0.609 8.486,3.672 C 8.549,3.684 8.6,3.721 8.661,3.738 8.114,3.785 7.561,3.807 7.006,3.822 L 5.695,0.927 3.436,2.323 5.661,3.828 C 5.39,3.822 5.123,3.801 4.854,3.787 L 3.046,2.564 1.628,3.44 C 1.417,3.405 1.2,3.383 0.99,3.343 L 2.666,2.307 0.127,0.591 -1.244,2.802 C -1.384,2.762 -1.53,2.734 -1.669,2.692 l 1.448,-2.336 -8.641,-5.843 c -0.107,0.121 -0.235,0.212 -0.372,0.299 L -6.359,0.8 C -6.557,0.699 -6.766,0.616 -6.961,0.51 l -2.648,-5.514 c -0.166,0.054 -0.336,0.105 -0.521,0.105 -0.17,0 -0.324,-0.051 -0.479,-0.097 l -0.993,2.325 c -0.113,-0.095 -0.217,-0.201 -0.328,-0.298 l 0.938,-2.197 c -0.368,-0.221 -0.635,-0.563 -0.755,-0.985 l -2.118,0.326 0.06,1.069 c -0.153,-0.161 -0.298,-0.328 -0.447,-0.492 l -0.029,-0.513 -0.383,0.059 c -0.11,-0.126 -0.229,-0.243 -0.337,-0.371 l 0.697,-0.107 -0.19,-3.374 -2.212,1.239 c -0.078,-0.115 -0.147,-0.237 -0.224,-0.353 l 2.41,-1.35 z" />
      </g>
      <g
         transform="translate(221.741,320.7399)"
         id="g1295">
        <path
           inkscape:connector-curvature="0"
           id="path1297"
           style="fill:#a7a9ac;fill-opacity:1;fill-rule:nonzero;stroke:none"
           d="M 0,0 -0.171,0.371 C -0.243,0.188 -0.305,0 -0.374,-0.185 L -0.363,-0.21 C -0.244,-0.139 -0.12,-0.07 0,0" />
      </g>
      <g
         transform="translate(223.97,321.9943)"
         id="g1299"
         style="fill:#5e9bff;fill-opacity:1">
        <path
           inkscape:connector-curvature="0"
           id="path1301"
           style="fill:#5e9bff;fill-opacity:1;fill-rule:nonzero;stroke:none"
           d="M 0,0 -1.269,1.599 C -1.34,1.462 -1.401,1.321 -1.47,1.183 l 1.096,-1.381 C -0.251,-0.131 -0.123,-0.067 0,0" />
      </g>
      <g
         transform="translate(259.2619,303.082)"
         id="g1303"
         style="fill:#5e9bff;fill-opacity:1">
        <path
           inkscape:connector-curvature="0"
           id="path1305"
           style="fill:#5e9bff;fill-opacity:1;fill-rule:nonzero;stroke:none"
           d="M 0,0 -1.244,-0.275 -3.063,3.317 C -3.112,3.116 -3.164,2.917 -3.23,2.723 l 1.566,-3.09 -5.882,-1.299 c -1.131,-0.41 -2.37,-0.568 -3.641,-0.345 -0.3,0.052 -0.577,0.154 -0.861,0.242 -0.099,-0.22 -0.172,-0.453 -0.172,-0.712 0,-0.483 0.194,-0.909 0.484,-1.25 l -1.862,-1.97 -2.444,7.056 c -0.855,1.42 -1.247,3.127 -0.938,4.888 0.101,0.576 0.286,1.112 0.51,1.624 l 0.352,3.702 5.21,0.487 c 0,-0.003 0.002,-0.006 0.003,-0.009 0.709,0.096 1.436,0.12 2.179,-0.01 1.981,-0.347 3.618,-1.486 4.664,-3.029 l 0.7,-0.584 C -3.433,8.318 -3.484,8.201 -3.538,8.085 -3.19,7.361 -2.981,6.574 -2.895,5.755 l 0.045,0.053 c 0.308,-0.208 0.659,-0.359 1.059,-0.359 0.107,0 0.199,0.044 0.302,0.061 z m -0.558,-2.551 -7.786,0.224 c -0.002,0.019 -0.009,0.035 -0.011,0.054 l 6.886,1.52 z m -17.294,-1.097 0.668,4.97 c 0.037,-0.001 0.071,-0.01 0.108,-0.01 0.201,0 0.392,0.032 0.579,0.078 l 2.437,-7.037 z m -0.091,9.561 -2.604,5.242 4.007,0.375 -0.518,-5.451 c -0.006,0 -0.012,0.002 -0.018,0.002 -0.307,0 -0.597,-0.063 -0.867,-0.168 m 1.987,7.358 5.013,-0.591 c -0.002,-0.048 -0.014,-0.092 -0.014,-0.14 0,-0.023 0.006,-0.045 0.007,-0.068 l -5.128,-0.479 z m 0.115,1.211 4.943,-1.356 c -0.002,-0.01 -10e-4,-0.021 -0.003,-0.031 l -5.016,0.592 z M -4.98,12.54 c 0,0.055 -0.014,0.107 -0.017,0.162 l 3.012,0.378 V 9.259 C -2.418,9.214 -2.814,9.046 -3.113,8.761 l -2.438,2.035 c 0.355,0.491 0.571,1.091 0.571,1.744 M 1.582,10.56 -0.484,8.771 c -0.29,0.271 -0.668,0.432 -1.083,0.482 v 3.88 l 1.376,0.173 c -0.111,0.13 -0.233,0.251 -0.349,0.377 l -1.027,-0.129 v 1.127 c -0.14,0.121 -0.272,0.25 -0.418,0.366 v -1.545 l -3.053,-0.384 c -0.07,0.357 -0.21,0.686 -0.394,0.985 l 2.377,1.707 c -0.129,0.082 -0.266,0.152 -0.398,0.23 L -5.68,14.441 c -0.235,0.282 -0.519,0.518 -0.842,0.699 l 0.898,1.919 c -0.132,0.047 -0.265,0.092 -0.399,0.135 l -0.876,-1.872 c -0.333,0.128 -0.691,0.206 -1.069,0.206 -0.014,0 -0.027,-0.004 -0.041,-0.004 l -0.183,2.165 c -0.142,0.02 -0.284,0.038 -0.425,0.053 l 0.19,-2.26 c -0.226,-0.035 -0.446,-0.09 -0.652,-0.172 l -1.219,2.512 c -0.151,-0.003 -0.299,-0.022 -0.449,-0.031 l 1.295,-2.671 c -0.369,-0.213 -0.69,-0.496 -0.938,-0.841 l -4.276,2.637 c -0.162,-0.065 -0.328,-0.12 -0.488,-0.191 l 4.55,-2.805 c -0.067,-0.127 -0.125,-0.257 -0.173,-0.394 l -5.024,1.378 0.149,1.572 c -0.147,-0.074 -0.295,-0.144 -0.44,-0.223 l -0.117,-1.237 -1.281,0.351 c -0.14,-0.102 -0.276,-0.212 -0.412,-0.32 l 1.653,-0.453 -0.082,-0.859 -2.695,0.318 c -0.123,-0.123 -0.241,-0.25 -0.359,-0.378 l 3.015,-0.355 -0.13,-1.366 -4.247,-0.397 -0.098,0.198 c -0.135,-0.216 -0.262,-0.438 -0.384,-0.663 l 0.235,0.022 2.677,-5.39 c -0.278,-0.171 -0.521,-0.394 -0.708,-0.66 l -3.565,2.059 c -0.025,-0.15 -0.036,-0.3 -0.056,-0.45 L -19.232,4.7 C -19.361,4.424 -19.436,4.12 -19.45,3.798 l -3.24,-0.146 c 0.015,-0.14 0.027,-0.279 0.047,-0.417 l 3.214,0.145 c 0.078,-0.583 0.363,-1.096 0.784,-1.466 l -2.415,-3.289 c 0.074,-0.13 0.161,-0.252 0.24,-0.379 l 2.511,3.419 c 0.217,-0.133 0.454,-0.234 0.71,-0.292 l -0.647,-4.814 -2.261,1.192 c 0.186,-0.271 0.388,-0.53 0.595,-0.786 l 1.606,-0.846 -0.097,-0.724 c 0.126,-0.111 0.248,-0.225 0.378,-0.331 l 0.114,0.847 3.896,-2.053 -0.701,-0.742 c 0.141,-0.056 0.289,-0.1 0.433,-0.151 l 0.515,0.545 0.282,-0.814 c 0.157,-0.045 0.322,-0.075 0.482,-0.114 l -0.314,0.909 2.372,-1.25 c 0.318,-0.025 0.634,-0.028 0.949,-0.029 l -3.336,1.758 1.907,2.018 c 0.328,-0.249 0.717,-0.422 1.16,-0.422 0.298,0 0.573,0.078 0.825,0.197 l 2.015,-3.302 c 0.145,0.029 0.291,0.053 0.435,0.087 l -2.103,3.449 c 0.21,0.162 0.381,0.356 0.511,0.588 l 5.556,-2.334 c 0.143,0.092 0.291,0.175 0.431,0.273 l -5.827,2.448 c 0.027,0.092 0.043,0.186 0.057,0.283 l 8.023,-0.231 0.149,-0.293 c 0.19,0.224 0.372,0.454 0.547,0.692 l -0.437,0.012 -0.964,1.905 1.157,0.255 0.494,-1.825 c 0.105,0.154 0.21,0.306 0.309,0.465 L 0.52,-0.314 1.813,-0.029 C 1.88,0.128 1.949,0.283 2.01,0.444 L 0.41,0.09 -1.077,5.593 c 0.082,0.033 0.146,0.09 0.222,0.133 L 2.302,1.309 C 2.353,1.48 2.399,1.654 2.443,1.828 L -0.508,5.96 c 0.119,0.108 0.206,0.239 0.295,0.374 L 2.84,4.76 c 0.003,0.155 0.013,0.311 0.01,0.465 l -2.853,1.472 c 0.08,0.212 0.137,0.437 0.137,0.677 0,0.028 -0.015,0.051 -0.016,0.079 L 2.545,7.826 C 2.514,7.964 2.472,8.097 2.436,8.233 L 0.035,7.864 c -0.057,0.21 -0.144,0.397 -0.264,0.573 l 2.001,1.732 c -0.059,0.133 -0.127,0.26 -0.19,0.391" />
      </g>
      <g
         transform="translate(225.9295,293.2374)"
         id="g1307">
        <path
           inkscape:connector-curvature="0"
           id="path1309"
           style="fill:#a7a9ac;fill-opacity:1;fill-rule:nonzero;stroke:none"
           d="M 0,0 C 0.012,0.002 0.024,0.005 0.035,0.007 0.016,0.031 -0.003,0.055 -0.023,0.079 Z" />
      </g>
      <g
         transform="translate(250.5358,316.2032)"
         id="g1311"
         style="fill:#083d91;fill-opacity:1">
        <path
           inkscape:connector-curvature="0"
           id="path1313"
           style="fill:#083d91;fill-opacity:1;fill-rule:nonzero;stroke:none"
           d="m 0,0 c -3.879,0.679 -7.575,-1.914 -8.254,-5.794 -0.68,-3.879 1.914,-7.575 5.793,-8.254 3.88,-0.68 7.575,1.915 8.255,5.794 C 6.473,-4.375 3.879,-0.679 0,0" />
      </g>
      <g
         transform="translate(261.9269,306.9687)"
         id="g1315"
         style="fill:#083d91;fill-opacity:1">
        <path
           inkscape:connector-curvature="0"
           id="path1317"
           style="fill:#083d91;fill-opacity:1;fill-rule:nonzero;stroke:none"
           d="m 0,0 c -1.221,-6.971 -7.861,-11.632 -14.832,-10.411 -6.97,1.221 -11.632,7.862 -10.411,14.832 1.221,6.971 7.862,11.632 14.832,10.411 C -3.44,13.611 1.221,6.971 0,0 M 22.757,-2.107 C 16.413,7.228 5.409,19.795 -9.096,22.336 -25.677,25.24 -42.407,14.272 -50.927,7.46 -51.83,4.233 -52.324,0.835 -52.324,-2.68 c 0,-0.85 0.039,-1.691 0.094,-2.526 5.793,6.317 15.498,15.163 27.016,18.887 -2.109,-2.312 -3.619,-5.219 -4.199,-8.529 -1.625,-9.274 4.577,-18.109 13.851,-19.733 9.273,-1.625 18.108,4.577 19.733,13.851 C 4.937,3.648 3.943,7.919 1.721,11.389 10.516,7.107 17.859,0.27 22.692,-5.012 c 0.047,0.772 0.079,1.548 0.079,2.332 0,0.192 -0.011,0.381 -0.014,0.573" />
      </g>
      <g
         id="g1319">
        <g
           id="g1321" />
        <g
           id="g1333">
          <g
             style="opacity:0.10000598"
             id="g1331"
             clip-path="url(#clipPath1325)">
            <g
               id="g1329"
               transform="translate(280.4488,282.1884)">
              <path
                 inkscape:connector-curvature="0"
                 id="path1327"
                 style="fill:#a7a9ac;fill-opacity:1;fill-rule:nonzero;stroke:none"
                 d="m 0,0 c 0,-0.557 -13.721,-1.008 -30.647,-1.008 -16.925,0 -30.646,0.451 -30.646,1.008 0,0.557 13.721,1.008 30.646,1.008 C -13.721,1.008 0,0.557 0,0" />
            </g>
          </g>
        </g>
      </g>
      <text
         xml:space="preserve"
         style="font-style:normal;font-weight:normal;font-size:14px;line-height:125%;font-family:sans-serif;letter-spacing:0px;word-spacing:0px;fill:#5e9bff;fill-opacity:1;stroke:none;stroke-width:0.75px;stroke-linecap:butt;stroke-linejoin:miter;stroke-opacity:1;"
         x="354.95401"
         y="-311.1235"
         id="text882"
         transform="scale(1,-1)"><tspan
           sodipodi:role="line"
           id="tspan880"
           x="354.95401"
           y="-311.1235"
           style="stroke-width:0.75px;fill:#5e9bff;fill-opacity:1;">blog</tspan></text>
    </g>
  </g>
</svg>
