<?xml version="1.0" encoding="utf-8" standalone="no"?>
<!DOCTYPE svg PUBLIC "-//W3C//DTD SVG 1.1//EN"
  "http://www.w3.org/Graphics/SVG/1.1/DTD/svg11.dtd">
<!-- Created with matplotlib (https://matplotlib.org/) -->
<svg height="345.6pt" version="1.1" viewBox="0 0 460.8 345.6" width="460.8pt" xmlns="http://www.w3.org/2000/svg" xmlns:xlink="http://www.w3.org/1999/xlink">
 <defs>
  <style type="text/css">
*{stroke-linecap:butt;stroke-linejoin:round;}
  </style>
 </defs>
 <g id="figure_1">
  <g id="patch_1">
   <path d="M 0 345.6 
L 460.8 345.6 
L 460.8 0 
L 0 0 
z
" style="fill:#ffffff;"/>
  </g>
  <g id="axes_1">
   <g id="patch_2">
    <path d="M 49.52 133.36 
L 218.651452 133.36 
L 218.651452 14.76 
L 49.52 14.76 
z
" style="fill:#ffffff;"/>
   </g>
   <g id="matplotlib.axis_1">
    <g id="xtick_1">
     <g id="line2d_1">
      <defs>
       <path d="M 0 0 
L 0 3.5 
" id="m35fed5f019" style="stroke:#000000;stroke-width:0.8;"/>
      </defs>
      <g>
       <use style="stroke:#000000;stroke-width:0.8;" x="57.207793" xlink:href="#m35fed5f019" y="133.36"/>
      </g>
     </g>
     <g id="text_1">
      <!-- 0 -->
      <defs>
       <path d="M 31.78125 66.40625 
Q 24.171875 66.40625 20.328125 58.90625 
Q 16.5 51.421875 16.5 36.375 
Q 16.5 21.390625 20.328125 13.890625 
Q 24.171875 6.390625 31.78125 6.390625 
Q 39.453125 6.390625 43.28125 13.890625 
Q 47.125 21.390625 47.125 36.375 
Q 47.125 51.421875 43.28125 58.90625 
Q 39.453125 66.40625 31.78125 66.40625 
z
M 31.78125 74.21875 
Q 44.046875 74.21875 50.515625 64.515625 
Q 56.984375 54.828125 56.984375 36.375 
Q 56.984375 17.96875 50.515625 8.265625 
Q 44.046875 -1.421875 31.78125 -1.421875 
Q 19.53125 -1.421875 13.0625 8.265625 
Q 6.59375 17.96875 6.59375 36.375 
Q 6.59375 54.828125 13.0625 64.515625 
Q 19.53125 74.21875 31.78125 74.21875 
z
" id="DejaVuSans-48"/>
      </defs>
      <g transform="translate(54.026543 147.958437)scale(0.1 -0.1)">
       <use xlink:href="#DejaVuSans-48"/>
      </g>
     </g>
    </g>
    <g id="xtick_2">
     <g id="line2d_2">
      <g>
       <use style="stroke:#000000;stroke-width:0.8;" x="96.035032" xlink:href="#m35fed5f019" y="133.36"/>
      </g>
     </g>
     <g id="text_2">
      <!-- 25 -->
      <defs>
       <path d="M 19.1875 8.296875 
L 53.609375 8.296875 
L 53.609375 0 
L 7.328125 0 
L 7.328125 8.296875 
Q 12.9375 14.109375 22.625 23.890625 
Q 32.328125 33.6875 34.8125 36.53125 
Q 39.546875 41.84375 41.421875 45.53125 
Q 43.3125 49.21875 43.3125 52.78125 
Q 43.3125 58.59375 39.234375 62.25 
Q 35.15625 65.921875 28.609375 65.921875 
Q 23.96875 65.921875 18.8125 64.3125 
Q 13.671875 62.703125 7.8125 59.421875 
L 7.8125 69.390625 
Q 13.765625 71.78125 18.9375 73 
Q 24.125 74.21875 28.421875 74.21875 
Q 39.75 74.21875 46.484375 68.546875 
Q 53.21875 62.890625 53.21875 53.421875 
Q 53.21875 48.921875 51.53125 44.890625 
Q 49.859375 40.875 45.40625 35.40625 
Q 44.1875 33.984375 37.640625 27.21875 
Q 31.109375 20.453125 19.1875 8.296875 
z
" id="DejaVuSans-50"/>
       <path d="M 10.796875 72.90625 
L 49.515625 72.90625 
L 49.515625 64.59375 
L 19.828125 64.59375 
L 19.828125 46.734375 
Q 21.96875 47.46875 24.109375 47.828125 
Q 26.265625 48.1875 28.421875 48.1875 
Q 40.625 48.1875 47.75 41.5 
Q 54.890625 34.8125 54.890625 23.390625 
Q 54.890625 11.625 47.5625 5.09375 
Q 40.234375 -1.421875 26.90625 -1.421875 
Q 22.3125 -1.421875 17.546875 -0.640625 
Q 12.796875 0.140625 7.71875 1.703125 
L 7.71875 11.625 
Q 12.109375 9.234375 16.796875 8.0625 
Q 21.484375 6.890625 26.703125 6.890625 
Q 35.15625 6.890625 40.078125 11.328125 
Q 45.015625 15.765625 45.015625 23.390625 
Q 45.015625 31 40.078125 35.4375 
Q 35.15625 39.890625 26.703125 39.890625 
Q 22.75 39.890625 18.8125 39.015625 
Q 14.890625 38.140625 10.796875 36.28125 
z
" id="DejaVuSans-53"/>
      </defs>
      <g transform="translate(89.672532 147.958437)scale(0.1 -0.1)">
       <use xlink:href="#DejaVuSans-50"/>
       <use x="63.623047" xlink:href="#DejaVuSans-53"/>
      </g>
     </g>
    </g>
    <g id="xtick_3">
     <g id="line2d_3">
      <g>
       <use style="stroke:#000000;stroke-width:0.8;" x="134.862271" xlink:href="#m35fed5f019" y="133.36"/>
      </g>
     </g>
     <g id="text_3">
      <!-- 50 -->
      <g transform="translate(128.499771 147.958437)scale(0.1 -0.1)">
       <use xlink:href="#DejaVuSans-53"/>
       <use x="63.623047" xlink:href="#DejaVuSans-48"/>
      </g>
     </g>
    </g>
    <g id="xtick_4">
     <g id="line2d_4">
      <g>
       <use style="stroke:#000000;stroke-width:0.8;" x="173.689509" xlink:href="#m35fed5f019" y="133.36"/>
      </g>
     </g>
     <g id="text_4">
      <!-- 75 -->
      <defs>
       <path d="M 8.203125 72.90625 
L 55.078125 72.90625 
L 55.078125 68.703125 
L 28.609375 0 
L 18.3125 0 
L 43.21875 64.59375 
L 8.203125 64.59375 
z
" id="DejaVuSans-55"/>
      </defs>
      <g transform="translate(167.327009 147.958437)scale(0.1 -0.1)">
       <use xlink:href="#DejaVuSans-55"/>
       <use x="63.623047" xlink:href="#DejaVuSans-53"/>
      </g>
     </g>
    </g>
    <g id="xtick_5">
     <g id="line2d_5">
      <g>
       <use style="stroke:#000000;stroke-width:0.8;" x="212.516748" xlink:href="#m35fed5f019" y="133.36"/>
      </g>
     </g>
     <g id="text_5">
      <!-- 100 -->
      <defs>
       <path d="M 12.40625 8.296875 
L 28.515625 8.296875 
L 28.515625 63.921875 
L 10.984375 60.40625 
L 10.984375 69.390625 
L 28.421875 72.90625 
L 38.28125 72.90625 
L 38.28125 8.296875 
L 54.390625 8.296875 
L 54.390625 0 
L 12.40625 0 
z
" id="DejaVuSans-49"/>
      </defs>
      <g transform="translate(202.972998 147.958437)scale(0.1 -0.1)">
       <use xlink:href="#DejaVuSans-49"/>
       <use x="63.623047" xlink:href="#DejaVuSans-48"/>
       <use x="127.246094" xlink:href="#DejaVuSans-48"/>
      </g>
     </g>
    </g>
    <g id="text_6">
     <!-- Sample index $t$ -->
     <defs>
      <path d="M 53.515625 70.515625 
L 53.515625 60.890625 
Q 47.90625 63.578125 42.921875 64.890625 
Q 37.9375 66.21875 33.296875 66.21875 
Q 25.25 66.21875 20.875 63.09375 
Q 16.5 59.96875 16.5 54.203125 
Q 16.5 49.359375 19.40625 46.890625 
Q 22.3125 44.4375 30.421875 42.921875 
L 36.375 41.703125 
Q 47.40625 39.59375 52.65625 34.296875 
Q 57.90625 29 57.90625 20.125 
Q 57.90625 9.515625 50.796875 4.046875 
Q 43.703125 -1.421875 29.984375 -1.421875 
Q 24.8125 -1.421875 18.96875 -0.25 
Q 13.140625 0.921875 6.890625 3.21875 
L 6.890625 13.375 
Q 12.890625 10.015625 18.65625 8.296875 
Q 24.421875 6.59375 29.984375 6.59375 
Q 38.421875 6.59375 43.015625 9.90625 
Q 47.609375 13.234375 47.609375 19.390625 
Q 47.609375 24.75 44.3125 27.78125 
Q 41.015625 30.8125 33.5 32.328125 
L 27.484375 33.5 
Q 16.453125 35.6875 11.515625 40.375 
Q 6.59375 45.0625 6.59375 53.421875 
Q 6.59375 63.09375 13.40625 68.65625 
Q 20.21875 74.21875 32.171875 74.21875 
Q 37.3125 74.21875 42.625 73.28125 
Q 47.953125 72.359375 53.515625 70.515625 
z
" id="DejaVuSans-83"/>
      <path d="M 34.28125 27.484375 
Q 23.390625 27.484375 19.1875 25 
Q 14.984375 22.515625 14.984375 16.5 
Q 14.984375 11.71875 18.140625 8.90625 
Q 21.296875 6.109375 26.703125 6.109375 
Q 34.1875 6.109375 38.703125 11.40625 
Q 43.21875 16.703125 43.21875 25.484375 
L 43.21875 27.484375 
z
M 52.203125 31.203125 
L 52.203125 0 
L 43.21875 0 
L 43.21875 8.296875 
Q 40.140625 3.328125 35.546875 0.953125 
Q 30.953125 -1.421875 24.3125 -1.421875 
Q 15.921875 -1.421875 10.953125 3.296875 
Q 6 8.015625 6 15.921875 
Q 6 25.140625 12.171875 29.828125 
Q 18.359375 34.515625 30.609375 34.515625 
L 43.21875 34.515625 
L 43.21875 35.40625 
Q 43.21875 41.609375 39.140625 45 
Q 35.0625 48.390625 27.6875 48.390625 
Q 23 48.390625 18.546875 47.265625 
Q 14.109375 46.140625 10.015625 43.890625 
L 10.015625 52.203125 
Q 14.9375 54.109375 19.578125 55.046875 
Q 24.21875 56 28.609375 56 
Q 40.484375 56 46.34375 49.84375 
Q 52.203125 43.703125 52.203125 31.203125 
z
" id="DejaVuSans-97"/>
      <path d="M 52 44.1875 
Q 55.375 50.25 60.0625 53.125 
Q 64.75 56 71.09375 56 
Q 79.640625 56 84.28125 50.015625 
Q 88.921875 44.046875 88.921875 33.015625 
L 88.921875 0 
L 79.890625 0 
L 79.890625 32.71875 
Q 79.890625 40.578125 77.09375 44.375 
Q 74.3125 48.1875 68.609375 48.1875 
Q 61.625 48.1875 57.5625 43.546875 
Q 53.515625 38.921875 53.515625 30.90625 
L 53.515625 0 
L 44.484375 0 
L 44.484375 32.71875 
Q 44.484375 40.625 41.703125 44.40625 
Q 38.921875 48.1875 33.109375 48.1875 
Q 26.21875 48.1875 22.15625 43.53125 
Q 18.109375 38.875 18.109375 30.90625 
L 18.109375 0 
L 9.078125 0 
L 9.078125 54.6875 
L 18.109375 54.6875 
L 18.109375 46.1875 
Q 21.1875 51.21875 25.484375 53.609375 
Q 29.78125 56 35.6875 56 
Q 41.65625 56 45.828125 52.96875 
Q 50 49.953125 52 44.1875 
z
" id="DejaVuSans-109"/>
      <path d="M 18.109375 8.203125 
L 18.109375 -20.796875 
L 9.078125 -20.796875 
L 9.078125 54.6875 
L 18.109375 54.6875 
L 18.109375 46.390625 
Q 20.953125 51.265625 25.265625 53.625 
Q 29.59375 56 35.59375 56 
Q 45.5625 56 51.78125 48.09375 
Q 58.015625 40.1875 58.015625 27.296875 
Q 58.015625 14.40625 51.78125 6.484375 
Q 45.5625 -1.421875 35.59375 -1.421875 
Q 29.59375 -1.421875 25.265625 0.953125 
Q 20.953125 3.328125 18.109375 8.203125 
z
M 48.6875 27.296875 
Q 48.6875 37.203125 44.609375 42.84375 
Q 40.53125 48.484375 33.40625 48.484375 
Q 26.265625 48.484375 22.1875 42.84375 
Q 18.109375 37.203125 18.109375 27.296875 
Q 18.109375 17.390625 22.1875 11.75 
Q 26.265625 6.109375 33.40625 6.109375 
Q 40.53125 6.109375 44.609375 11.75 
Q 48.6875 17.390625 48.6875 27.296875 
z
" id="DejaVuSans-112"/>
      <path d="M 9.421875 75.984375 
L 18.40625 75.984375 
L 18.40625 0 
L 9.421875 0 
z
" id="DejaVuSans-108"/>
      <path d="M 56.203125 29.59375 
L 56.203125 25.203125 
L 14.890625 25.203125 
Q 15.484375 15.921875 20.484375 11.0625 
Q 25.484375 6.203125 34.421875 6.203125 
Q 39.59375 6.203125 44.453125 7.46875 
Q 49.3125 8.734375 54.109375 11.28125 
L 54.109375 2.78125 
Q 49.265625 0.734375 44.1875 -0.34375 
Q 39.109375 -1.421875 33.890625 -1.421875 
Q 20.796875 -1.421875 13.15625 6.1875 
Q 5.515625 13.8125 5.515625 26.8125 
Q 5.515625 40.234375 12.765625 48.109375 
Q 20.015625 56 32.328125 56 
Q 43.359375 56 49.78125 48.890625 
Q 56.203125 41.796875 56.203125 29.59375 
z
M 47.21875 32.234375 
Q 47.125 39.59375 43.09375 43.984375 
Q 39.0625 48.390625 32.421875 48.390625 
Q 24.90625 48.390625 20.390625 44.140625 
Q 15.875 39.890625 15.1875 32.171875 
z
" id="DejaVuSans-101"/>
      <path id="DejaVuSans-32"/>
      <path d="M 9.421875 54.6875 
L 18.40625 54.6875 
L 18.40625 0 
L 9.421875 0 
z
M 9.421875 75.984375 
L 18.40625 75.984375 
L 18.40625 64.59375 
L 9.421875 64.59375 
z
" id="DejaVuSans-105"/>
      <path d="M 54.890625 33.015625 
L 54.890625 0 
L 45.90625 0 
L 45.90625 32.71875 
Q 45.90625 40.484375 42.875 44.328125 
Q 39.84375 48.1875 33.796875 48.1875 
Q 26.515625 48.1875 22.3125 43.546875 
Q 18.109375 38.921875 18.109375 30.90625 
L 18.109375 0 
L 9.078125 0 
L 9.078125 54.6875 
L 18.109375 54.6875 
L 18.109375 46.1875 
Q 21.34375 51.125 25.703125 53.5625 
Q 30.078125 56 35.796875 56 
Q 45.21875 56 50.046875 50.171875 
Q 54.890625 44.34375 54.890625 33.015625 
z
" id="DejaVuSans-110"/>
      <path d="M 45.40625 46.390625 
L 45.40625 75.984375 
L 54.390625 75.984375 
L 54.390625 0 
L 45.40625 0 
L 45.40625 8.203125 
Q 42.578125 3.328125 38.25 0.953125 
Q 33.9375 -1.421875 27.875 -1.421875 
Q 17.96875 -1.421875 11.734375 6.484375 
Q 5.515625 14.40625 5.515625 27.296875 
Q 5.515625 40.1875 11.734375 48.09375 
Q 17.96875 56 27.875 56 
Q 33.9375 56 38.25 53.625 
Q 42.578125 51.265625 45.40625 46.390625 
z
M 14.796875 27.296875 
Q 14.796875 17.390625 18.875 11.75 
Q 22.953125 6.109375 30.078125 6.109375 
Q 37.203125 6.109375 41.296875 11.75 
Q 45.40625 17.390625 45.40625 27.296875 
Q 45.40625 37.203125 41.296875 42.84375 
Q 37.203125 48.484375 30.078125 48.484375 
Q 22.953125 48.484375 18.875 42.84375 
Q 14.796875 37.203125 14.796875 27.296875 
z
" id="DejaVuSans-100"/>
      <path d="M 54.890625 54.6875 
L 35.109375 28.078125 
L 55.90625 0 
L 45.3125 0 
L 29.390625 21.484375 
L 13.484375 0 
L 2.875 0 
L 24.125 28.609375 
L 4.6875 54.6875 
L 15.28125 54.6875 
L 29.78125 35.203125 
L 44.28125 54.6875 
z
" id="DejaVuSans-120"/>
      <path d="M 42.28125 54.6875 
L 40.921875 47.703125 
L 23 47.703125 
L 17.1875 18.015625 
Q 16.890625 16.359375 16.75 15.234375 
Q 16.609375 14.109375 16.609375 13.484375 
Q 16.609375 10.359375 18.484375 8.9375 
Q 20.359375 7.515625 24.515625 7.515625 
L 33.59375 7.515625 
L 32.078125 0 
L 23.484375 0 
Q 15.484375 0 11.546875 3.125 
Q 7.625 6.25 7.625 12.59375 
Q 7.625 13.71875 7.765625 15.0625 
Q 7.90625 16.40625 8.203125 18.015625 
L 14.015625 47.703125 
L 6.390625 47.703125 
L 7.8125 54.6875 
L 15.28125 54.6875 
L 18.3125 70.21875 
L 27.296875 70.21875 
L 24.3125 54.6875 
z
" id="DejaVuSans-Oblique-116"/>
     </defs>
     <g transform="translate(96.385726 161.638125)scale(0.1 -0.1)">
      <use transform="translate(0 0.015625)" xlink:href="#DejaVuSans-83"/>
      <use transform="translate(63.476562 0.015625)" xlink:href="#DejaVuSans-97"/>
      <use transform="translate(124.755859 0.015625)" xlink:href="#DejaVuSans-109"/>
      <use transform="translate(222.167969 0.015625)" xlink:href="#DejaVuSans-112"/>
      <use transform="translate(285.644531 0.015625)" xlink:href="#DejaVuSans-108"/>
      <use transform="translate(313.427734 0.015625)" xlink:href="#DejaVuSans-101"/>
      <use transform="translate(374.951172 0.015625)" xlink:href="#DejaVuSans-32"/>
      <use transform="translate(406.738281 0.015625)" xlink:href="#DejaVuSans-105"/>
      <use transform="translate(434.521484 0.015625)" xlink:href="#DejaVuSans-110"/>
      <use transform="translate(497.900391 0.015625)" xlink:href="#DejaVuSans-100"/>
      <use transform="translate(561.376953 0.015625)" xlink:href="#DejaVuSans-101"/>
      <use transform="translate(622.900391 0.015625)" xlink:href="#DejaVuSans-120"/>
      <use transform="translate(682.080078 0.015625)" xlink:href="#DejaVuSans-32"/>
      <use transform="translate(713.867188 0.015625)" xlink:href="#DejaVuSans-Oblique-116"/>
     </g>
    </g>
   </g>
   <g id="matplotlib.axis_2">
    <g id="ytick_1">
     <g id="line2d_6">
      <defs>
       <path d="M 0 0 
L -3.5 0 
" id="m1e3f277c26" style="stroke:#000000;stroke-width:0.8;"/>
      </defs>
      <g>
       <use style="stroke:#000000;stroke-width:0.8;" x="49.52" xlink:href="#m1e3f277c26" y="133.36"/>
      </g>
     </g>
     <g id="text_7">
      <!-- −2 -->
      <defs>
       <path d="M 10.59375 35.5 
L 73.1875 35.5 
L 73.1875 27.203125 
L 10.59375 27.203125 
z
" id="DejaVuSans-8722"/>
      </defs>
      <g transform="translate(27.777813 137.159219)scale(0.1 -0.1)">
       <use xlink:href="#DejaVuSans-8722"/>
       <use x="83.789062" xlink:href="#DejaVuSans-50"/>
      </g>
     </g>
    </g>
    <g id="ytick_2">
     <g id="line2d_7">
      <g>
       <use style="stroke:#000000;stroke-width:0.8;" x="49.52" xlink:href="#m1e3f277c26" y="103.71"/>
      </g>
     </g>
     <g id="text_8">
      <!-- −1 -->
      <g transform="translate(27.777813 107.509219)scale(0.1 -0.1)">
       <use xlink:href="#DejaVuSans-8722"/>
       <use x="83.789062" xlink:href="#DejaVuSans-49"/>
      </g>
     </g>
    </g>
    <g id="ytick_3">
     <g id="line2d_8">
      <g>
       <use style="stroke:#000000;stroke-width:0.8;" x="49.52" xlink:href="#m1e3f277c26" y="74.06"/>
      </g>
     </g>
     <g id="text_9">
      <!-- 0 -->
      <g transform="translate(36.1575 77.859219)scale(0.1 -0.1)">
       <use xlink:href="#DejaVuSans-48"/>
      </g>
     </g>
    </g>
    <g id="ytick_4">
     <g id="line2d_9">
      <g>
       <use style="stroke:#000000;stroke-width:0.8;" x="49.52" xlink:href="#m1e3f277c26" y="44.41"/>
      </g>
     </g>
     <g id="text_10">
      <!-- 1 -->
      <g transform="translate(36.1575 48.209219)scale(0.1 -0.1)">
       <use xlink:href="#DejaVuSans-49"/>
      </g>
     </g>
    </g>
    <g id="ytick_5">
     <g id="line2d_10">
      <g>
       <use style="stroke:#000000;stroke-width:0.8;" x="49.52" xlink:href="#m1e3f277c26" y="14.76"/>
      </g>
     </g>
     <g id="text_11">
      <!-- 2 -->
      <g transform="translate(36.1575 18.559219)scale(0.1 -0.1)">
       <use xlink:href="#DejaVuSans-50"/>
      </g>
     </g>
    </g>
    <g id="text_12">
     <!-- Signal value $x_t$ -->
     <defs>
      <path d="M 45.40625 27.984375 
Q 45.40625 37.75 41.375 43.109375 
Q 37.359375 48.484375 30.078125 48.484375 
Q 22.859375 48.484375 18.828125 43.109375 
Q 14.796875 37.75 14.796875 27.984375 
Q 14.796875 18.265625 18.828125 12.890625 
Q 22.859375 7.515625 30.078125 7.515625 
Q 37.359375 7.515625 41.375 12.890625 
Q 45.40625 18.265625 45.40625 27.984375 
z
M 54.390625 6.78125 
Q 54.390625 -7.171875 48.1875 -13.984375 
Q 42 -20.796875 29.203125 -20.796875 
Q 24.46875 -20.796875 20.265625 -20.09375 
Q 16.0625 -19.390625 12.109375 -17.921875 
L 12.109375 -9.1875 
Q 16.0625 -11.328125 19.921875 -12.34375 
Q 23.78125 -13.375 27.78125 -13.375 
Q 36.625 -13.375 41.015625 -8.765625 
Q 45.40625 -4.15625 45.40625 5.171875 
L 45.40625 9.625 
Q 42.625 4.78125 38.28125 2.390625 
Q 33.9375 0 27.875 0 
Q 17.828125 0 11.671875 7.65625 
Q 5.515625 15.328125 5.515625 27.984375 
Q 5.515625 40.671875 11.671875 48.328125 
Q 17.828125 56 27.875 56 
Q 33.9375 56 38.28125 53.609375 
Q 42.625 51.21875 45.40625 46.390625 
L 45.40625 54.6875 
L 54.390625 54.6875 
z
" id="DejaVuSans-103"/>
      <path d="M 2.984375 54.6875 
L 12.5 54.6875 
L 29.59375 8.796875 
L 46.6875 54.6875 
L 56.203125 54.6875 
L 35.6875 0 
L 23.484375 0 
z
" id="DejaVuSans-118"/>
      <path d="M 8.5 21.578125 
L 8.5 54.6875 
L 17.484375 54.6875 
L 17.484375 21.921875 
Q 17.484375 14.15625 20.5 10.265625 
Q 23.53125 6.390625 29.59375 6.390625 
Q 36.859375 6.390625 41.078125 11.03125 
Q 45.3125 15.671875 45.3125 23.6875 
L 45.3125 54.6875 
L 54.296875 54.6875 
L 54.296875 0 
L 45.3125 0 
L 45.3125 8.40625 
Q 42.046875 3.421875 37.71875 1 
Q 33.40625 -1.421875 27.6875 -1.421875 
Q 18.265625 -1.421875 13.375 4.4375 
Q 8.5 10.296875 8.5 21.578125 
z
M 31.109375 56 
z
" id="DejaVuSans-117"/>
      <path d="M 60.015625 54.6875 
L 34.90625 27.875 
L 50.296875 0 
L 39.984375 0 
L 28.421875 21.6875 
L 8.296875 0 
L -2.59375 0 
L 24.3125 28.8125 
L 10.015625 54.6875 
L 20.3125 54.6875 
L 30.8125 34.90625 
L 49.125 54.6875 
z
" id="DejaVuSans-Oblique-120"/>
     </defs>
     <g transform="translate(21.677813 110.76)rotate(-90)scale(0.1 -0.1)">
      <use transform="translate(0 0.015625)" xlink:href="#DejaVuSans-83"/>
      <use transform="translate(63.476562 0.015625)" xlink:href="#DejaVuSans-105"/>
      <use transform="translate(91.259766 0.015625)" xlink:href="#DejaVuSans-103"/>
      <use transform="translate(154.736328 0.015625)" xlink:href="#DejaVuSans-110"/>
      <use transform="translate(218.115234 0.015625)" xlink:href="#DejaVuSans-97"/>
      <use transform="translate(279.394531 0.015625)" xlink:href="#DejaVuSans-108"/>
      <use transform="translate(307.177734 0.015625)" xlink:href="#DejaVuSans-32"/>
      <use transform="translate(338.964844 0.015625)" xlink:href="#DejaVuSans-118"/>
      <use transform="translate(398.144531 0.015625)" xlink:href="#DejaVuSans-97"/>
      <use transform="translate(459.423828 0.015625)" xlink:href="#DejaVuSans-108"/>
      <use transform="translate(487.207031 0.015625)" xlink:href="#DejaVuSans-117"/>
      <use transform="translate(550.585938 0.015625)" xlink:href="#DejaVuSans-101"/>
      <use transform="translate(612.109375 0.015625)" xlink:href="#DejaVuSans-32"/>
      <use transform="translate(643.896484 0.015625)" xlink:href="#DejaVuSans-Oblique-120"/>
      <use transform="translate(703.076172 -16.390625)scale(0.7)" xlink:href="#DejaVuSans-Oblique-116"/>
     </g>
    </g>
   </g>
   <g id="line2d_11">
    <path clip-path="url(#pe181be73a4)" d="M 57.207793 118.748068 
L 58.760883 96.739993 
L 60.313972 112.056365 
L 61.867062 71.093439 
L 63.420151 49.924772 
L 64.973241 45.464797 
L 66.526331 63.055412 
L 68.07942 49.887626 
L 69.63251 77.569022 
L 71.185599 66.072841 
L 72.738689 27.30793 
L 74.291778 114.613822 
L 75.844868 83.08014 
L 77.397957 33.145526 
L 78.951047 74.956348 
L 80.504137 103.510956 
L 82.057226 83.099239 
L 83.610316 74.255269 
L 85.163405 84.595292 
L 86.716495 96.72558 
L 88.269584 59.798853 
L 89.822674 112.205637 
L 91.375763 33.479028 
L 92.928853 103.374991 
L 94.481942 88.467626 
L 96.035032 114.302291 
L 97.316032 -1 
M 97.926778 -1 
L 99.141211 86.824315 
L 100.694301 67.142061 
L 102.24739 72.551531 
L 103.80048 41.253572 
L 105.353569 113.259855 
L 106.906659 41.342761 
L 108.459748 50.02526 
L 110.012838 85.616366 
L 111.565927 62.347525 
L 113.119017 42.037818 
L 114.672107 78.967932 
L 116.225196 78.949463 
L 117.778286 80.385419 
L 119.331375 104.599895 
L 120.884465 57.573913 
L 122.437554 93.204632 
L 123.990644 113.823952 
L 125.543733 80.497663 
L 127.096823 34.298022 
L 128.649913 74.155552 
L 130.203002 69.832262 
L 131.756092 64.662702 
L 133.309181 83.279309 
L 134.862271 99.157984 
L 136.41536 38.197874 
L 137.96845 83.814671 
L 139.521539 115.78758 
L 141.074629 33.022428 
L 142.627718 73.41892 
L 144.180808 104.559171 
L 145.733898 61.377928 
L 147.286987 85.514017 
L 148.840077 61.343799 
L 150.393166 48.800214 
L 151.946256 36.207384 
L 153.499345 67.416456 
L 155.052435 80.045623 
L 156.605524 53.411345 
L 158.158614 118.550772 
L 159.711704 100.247907 
L 161.264793 67.903506 
L 162.817883 64.674147 
L 164.370972 126.298503 
L 165.924062 93.003631 
L 167.477151 112.178333 
L 169.030241 96.113465 
L 170.58333 75.802846 
L 172.13642 70.791602 
L 173.689509 56.108493 
L 175.242599 53.446412 
L 176.795689 53.00251 
L 178.348778 140.509243 
L 179.901868 67.391005 
L 181.454957 134.958966 
L 183.008047 125.493336 
L 184.561136 38.817969 
L 186.114226 41.351372 
L 187.667315 110.253153 
L 189.220405 78.228185 
L 190.773495 77.037876 
L 192.326584 44.20092 
L 193.879674 49.362434 
L 195.432763 58.608342 
L 196.985853 98.793251 
L 198.538942 47.720026 
L 200.092032 52.496108 
L 201.645121 40.317765 
L 203.198211 85.481691 
L 204.7513 109.476712 
L 206.30439 45.857798 
L 207.85748 86.90368 
L 209.410569 115.226315 
L 210.963659 31.73781 
" style="fill:none;stroke:#5e9bff;stroke-linecap:square;stroke-width:1.5;"/>
   </g>
   <g id="patch_3">
    <path d="M 49.52 133.36 
L 49.52 14.76 
" style="fill:none;stroke:#000000;stroke-linecap:square;stroke-linejoin:miter;stroke-width:0.8;"/>
   </g>
   <g id="patch_4">
    <path d="M 49.52 133.36 
L 218.651452 133.36 
" style="fill:none;stroke:#000000;stroke-linecap:square;stroke-linejoin:miter;stroke-width:0.8;"/>
   </g>
  </g>
  <g id="axes_2">
   <g id="patch_5">
    <path d="M 278.348548 133.36 
L 447.48 133.36 
L 447.48 14.76 
L 278.348548 14.76 
z
" style="fill:#ffffff;"/>
   </g>
   <g id="matplotlib.axis_3">
    <g id="xtick_6">
     <g id="line2d_12">
      <g>
       <use style="stroke:#000000;stroke-width:0.8;" x="286.036341" xlink:href="#m35fed5f019" y="133.36"/>
      </g>
     </g>
     <g id="text_13">
      <!-- −20 -->
      <g transform="translate(275.483998 147.958437)scale(0.1 -0.1)">
       <use xlink:href="#DejaVuSans-8722"/>
       <use x="83.789062" xlink:href="#DejaVuSans-50"/>
       <use x="147.412109" xlink:href="#DejaVuSans-48"/>
      </g>
     </g>
    </g>
    <g id="xtick_7">
     <g id="line2d_13">
      <g>
       <use style="stroke:#000000;stroke-width:0.8;" x="324.475308" xlink:href="#m35fed5f019" y="133.36"/>
      </g>
     </g>
     <g id="text_14">
      <!-- −10 -->
      <g transform="translate(313.922964 147.958437)scale(0.1 -0.1)">
       <use xlink:href="#DejaVuSans-8722"/>
       <use x="83.789062" xlink:href="#DejaVuSans-49"/>
       <use x="147.412109" xlink:href="#DejaVuSans-48"/>
      </g>
     </g>
    </g>
    <g id="xtick_8">
     <g id="line2d_14">
      <g>
       <use style="stroke:#000000;stroke-width:0.8;" x="362.914274" xlink:href="#m35fed5f019" y="133.36"/>
      </g>
     </g>
     <g id="text_15">
      <!-- 0 -->
      <g transform="translate(359.733024 147.958437)scale(0.1 -0.1)">
       <use xlink:href="#DejaVuSans-48"/>
      </g>
     </g>
    </g>
    <g id="xtick_9">
     <g id="line2d_15">
      <g>
       <use style="stroke:#000000;stroke-width:0.8;" x="401.35324" xlink:href="#m35fed5f019" y="133.36"/>
      </g>
     </g>
     <g id="text_16">
      <!-- 10 -->
      <g transform="translate(394.99074 147.958437)scale(0.1 -0.1)">
       <use xlink:href="#DejaVuSans-49"/>
       <use x="63.623047" xlink:href="#DejaVuSans-48"/>
      </g>
     </g>
    </g>
    <g id="xtick_10">
     <g id="line2d_16">
      <g>
       <use style="stroke:#000000;stroke-width:0.8;" x="439.792207" xlink:href="#m35fed5f019" y="133.36"/>
      </g>
     </g>
     <g id="text_17">
      <!-- 20 -->
      <g transform="translate(433.429707 147.958437)scale(0.1 -0.1)">
       <use xlink:href="#DejaVuSans-50"/>
       <use x="63.623047" xlink:href="#DejaVuSans-48"/>
      </g>
     </g>
    </g>
    <g id="text_18">
     <!-- Lag $t-s$ -->
     <defs>
      <path d="M 9.8125 72.90625 
L 19.671875 72.90625 
L 19.671875 8.296875 
L 55.171875 8.296875 
L 55.171875 0 
L 9.8125 0 
z
" id="DejaVuSans-76"/>
      <path d="M 50 53.078125 
L 48.296875 44.578125 
Q 44.734375 46.53125 40.765625 47.5 
Q 36.8125 48.484375 32.625 48.484375 
Q 25.53125 48.484375 21.453125 46.0625 
Q 17.390625 43.65625 17.390625 39.5 
Q 17.390625 34.671875 26.859375 32.078125 
Q 27.59375 31.890625 27.9375 31.78125 
L 30.8125 30.90625 
Q 39.796875 28.421875 42.796875 25.6875 
Q 45.796875 22.953125 45.796875 18.21875 
Q 45.796875 9.515625 38.890625 4.046875 
Q 31.984375 -1.421875 20.796875 -1.421875 
Q 16.453125 -1.421875 11.671875 -0.578125 
Q 6.890625 0.25 1.125 2 
L 2.875 11.28125 
Q 7.8125 8.734375 12.59375 7.421875 
Q 17.390625 6.109375 21.78125 6.109375 
Q 28.375 6.109375 32.5 8.9375 
Q 36.625 11.765625 36.625 16.109375 
Q 36.625 20.796875 25.78125 23.6875 
L 24.859375 23.921875 
L 21.78125 24.703125 
Q 14.9375 26.515625 11.765625 29.46875 
Q 8.59375 32.421875 8.59375 37.015625 
Q 8.59375 45.75 15.15625 50.875 
Q 21.734375 56 33.015625 56 
Q 37.453125 56 41.671875 55.265625 
Q 45.90625 54.546875 50 53.078125 
z
" id="DejaVuSans-Oblique-115"/>
     </defs>
     <g transform="translate(341.564274 161.61625)scale(0.1 -0.1)">
      <use transform="translate(0 0.09375)" xlink:href="#DejaVuSans-76"/>
      <use transform="translate(55.712891 0.09375)" xlink:href="#DejaVuSans-97"/>
      <use transform="translate(116.992188 0.09375)" xlink:href="#DejaVuSans-103"/>
      <use transform="translate(180.46875 0.09375)" xlink:href="#DejaVuSans-32"/>
      <use transform="translate(212.255859 0.09375)" xlink:href="#DejaVuSans-Oblique-116"/>
      <use transform="translate(270.947266 0.09375)" xlink:href="#DejaVuSans-8722"/>
      <use transform="translate(374.21875 0.09375)" xlink:href="#DejaVuSans-Oblique-115"/>
     </g>
    </g>
   </g>
   <g id="matplotlib.axis_4">
    <g id="ytick_6">
     <g id="line2d_17">
      <g>
       <use style="stroke:#000000;stroke-width:0.8;" x="278.348548" xlink:href="#m1e3f277c26" y="133.36"/>
      </g>
     </g>
     <g id="text_19">
      <!-- −1.0 -->
      <defs>
       <path d="M 10.6875 12.40625 
L 21 12.40625 
L 21 0 
L 10.6875 0 
z
" id="DejaVuSans-46"/>
      </defs>
      <g transform="translate(247.065736 137.159219)scale(0.1 -0.1)">
       <use xlink:href="#DejaVuSans-8722"/>
       <use x="83.789062" xlink:href="#DejaVuSans-49"/>
       <use x="147.412109" xlink:href="#DejaVuSans-46"/>
       <use x="179.199219" xlink:href="#DejaVuSans-48"/>
      </g>
     </g>
    </g>
    <g id="ytick_7">
     <g id="line2d_18">
      <g>
       <use style="stroke:#000000;stroke-width:0.8;" x="278.348548" xlink:href="#m1e3f277c26" y="103.71"/>
      </g>
     </g>
     <g id="text_20">
      <!-- −0.5 -->
      <g transform="translate(247.065736 107.509219)scale(0.1 -0.1)">
       <use xlink:href="#DejaVuSans-8722"/>
       <use x="83.789062" xlink:href="#DejaVuSans-48"/>
       <use x="147.412109" xlink:href="#DejaVuSans-46"/>
       <use x="179.199219" xlink:href="#DejaVuSans-53"/>
      </g>
     </g>
    </g>
    <g id="ytick_8">
     <g id="line2d_19">
      <g>
       <use style="stroke:#000000;stroke-width:0.8;" x="278.348548" xlink:href="#m1e3f277c26" y="74.06"/>
      </g>
     </g>
     <g id="text_21">
      <!-- 0.0 -->
      <g transform="translate(255.445423 77.859219)scale(0.1 -0.1)">
       <use xlink:href="#DejaVuSans-48"/>
       <use x="63.623047" xlink:href="#DejaVuSans-46"/>
       <use x="95.410156" xlink:href="#DejaVuSans-48"/>
      </g>
     </g>
    </g>
    <g id="ytick_9">
     <g id="line2d_20">
      <g>
       <use style="stroke:#000000;stroke-width:0.8;" x="278.348548" xlink:href="#m1e3f277c26" y="44.41"/>
      </g>
     </g>
     <g id="text_22">
      <!-- 0.5 -->
      <g transform="translate(255.445423 48.209219)scale(0.1 -0.1)">
       <use xlink:href="#DejaVuSans-48"/>
       <use x="63.623047" xlink:href="#DejaVuSans-46"/>
       <use x="95.410156" xlink:href="#DejaVuSans-53"/>
      </g>
     </g>
    </g>
    <g id="ytick_10">
     <g id="line2d_21">
      <g>
       <use style="stroke:#000000;stroke-width:0.8;" x="278.348548" xlink:href="#m1e3f277c26" y="14.76"/>
      </g>
     </g>
     <g id="text_23">
      <!-- 1.0 -->
      <g transform="translate(255.445423 18.559219)scale(0.1 -0.1)">
       <use xlink:href="#DejaVuSans-49"/>
       <use x="63.623047" xlink:href="#DejaVuSans-46"/>
       <use x="95.410156" xlink:href="#DejaVuSans-48"/>
      </g>
     </g>
    </g>
    <g id="text_24">
     <!-- Correlation -->
     <defs>
      <path d="M 64.40625 67.28125 
L 64.40625 56.890625 
Q 59.421875 61.53125 53.78125 63.8125 
Q 48.140625 66.109375 41.796875 66.109375 
Q 29.296875 66.109375 22.65625 58.46875 
Q 16.015625 50.828125 16.015625 36.375 
Q 16.015625 21.96875 22.65625 14.328125 
Q 29.296875 6.6875 41.796875 6.6875 
Q 48.140625 6.6875 53.78125 8.984375 
Q 59.421875 11.28125 64.40625 15.921875 
L 64.40625 5.609375 
Q 59.234375 2.09375 53.4375 0.328125 
Q 47.65625 -1.421875 41.21875 -1.421875 
Q 24.65625 -1.421875 15.125 8.703125 
Q 5.609375 18.84375 5.609375 36.375 
Q 5.609375 53.953125 15.125 64.078125 
Q 24.65625 74.21875 41.21875 74.21875 
Q 47.75 74.21875 53.53125 72.484375 
Q 59.328125 70.75 64.40625 67.28125 
z
" id="DejaVuSans-67"/>
      <path d="M 30.609375 48.390625 
Q 23.390625 48.390625 19.1875 42.75 
Q 14.984375 37.109375 14.984375 27.296875 
Q 14.984375 17.484375 19.15625 11.84375 
Q 23.34375 6.203125 30.609375 6.203125 
Q 37.796875 6.203125 41.984375 11.859375 
Q 46.1875 17.53125 46.1875 27.296875 
Q 46.1875 37.015625 41.984375 42.703125 
Q 37.796875 48.390625 30.609375 48.390625 
z
M 30.609375 56 
Q 42.328125 56 49.015625 48.375 
Q 55.71875 40.765625 55.71875 27.296875 
Q 55.71875 13.875 49.015625 6.21875 
Q 42.328125 -1.421875 30.609375 -1.421875 
Q 18.84375 -1.421875 12.171875 6.21875 
Q 5.515625 13.875 5.515625 27.296875 
Q 5.515625 40.765625 12.171875 48.375 
Q 18.84375 56 30.609375 56 
z
" id="DejaVuSans-111"/>
      <path d="M 41.109375 46.296875 
Q 39.59375 47.171875 37.8125 47.578125 
Q 36.03125 48 33.890625 48 
Q 26.265625 48 22.1875 43.046875 
Q 18.109375 38.09375 18.109375 28.8125 
L 18.109375 0 
L 9.078125 0 
L 9.078125 54.6875 
L 18.109375 54.6875 
L 18.109375 46.1875 
Q 20.953125 51.171875 25.484375 53.578125 
Q 30.03125 56 36.53125 56 
Q 37.453125 56 38.578125 55.875 
Q 39.703125 55.765625 41.0625 55.515625 
z
" id="DejaVuSans-114"/>
      <path d="M 18.3125 70.21875 
L 18.3125 54.6875 
L 36.8125 54.6875 
L 36.8125 47.703125 
L 18.3125 47.703125 
L 18.3125 18.015625 
Q 18.3125 11.328125 20.140625 9.421875 
Q 21.96875 7.515625 27.59375 7.515625 
L 36.8125 7.515625 
L 36.8125 0 
L 27.59375 0 
Q 17.1875 0 13.234375 3.875 
Q 9.28125 7.765625 9.28125 18.015625 
L 9.28125 47.703125 
L 2.6875 47.703125 
L 2.6875 54.6875 
L 9.28125 54.6875 
L 9.28125 70.21875 
z
" id="DejaVuSans-116"/>
     </defs>
     <g transform="translate(240.986048 101.826406)rotate(-90)scale(0.1 -0.1)">
      <use xlink:href="#DejaVuSans-67"/>
      <use x="69.824219" xlink:href="#DejaVuSans-111"/>
      <use x="131.005859" xlink:href="#DejaVuSans-114"/>
      <use x="172.103516" xlink:href="#DejaVuSans-114"/>
      <use x="213.185547" xlink:href="#DejaVuSans-101"/>
      <use x="274.708984" xlink:href="#DejaVuSans-108"/>
      <use x="302.492188" xlink:href="#DejaVuSans-97"/>
      <use x="363.771484" xlink:href="#DejaVuSans-116"/>
      <use x="402.980469" xlink:href="#DejaVuSans-105"/>
      <use x="430.763672" xlink:href="#DejaVuSans-111"/>
      <use x="491.945312" xlink:href="#DejaVuSans-110"/>
     </g>
    </g>
   </g>
   <g id="line2d_22">
    <path clip-path="url(#pef0724c684)" d="M 286.036341 74.06 
L 289.880238 74.06 
L 293.724135 74.06 
L 297.568031 74.06 
L 301.411928 74.06 
L 305.255825 74.06 
L 309.099721 74.06 
L 312.943618 74.06 
L 316.787514 74.06 
L 320.631411 74.06 
L 324.475308 74.06 
L 328.319204 74.06 
L 332.163101 74.06 
L 336.006998 74.06 
L 339.850894 74.06 
L 343.694791 74.06 
L 347.538688 74.06 
L 351.382584 74.06 
L 355.226481 74.06 
L 359.070377 74.06 
L 362.914274 14.76 
L 366.758171 74.06 
L 370.602067 74.06 
L 374.445964 74.06 
L 378.289861 74.06 
L 382.133757 74.06 
L 385.977654 74.06 
L 389.82155 74.06 
L 393.665447 74.06 
L 397.509344 74.06 
L 401.35324 74.06 
L 405.197137 74.06 
L 409.041034 74.06 
L 412.88493 74.06 
L 416.728827 74.06 
L 420.572724 74.06 
L 424.41662 74.06 
L 428.260517 74.06 
L 432.104413 74.06 
L 435.94831 74.06 
L 439.792207 74.06 
" style="fill:none;"/>
   </g>
   <g id="line2d_23">
    <path clip-path="url(#pef0724c684)" d="M 286.036341 74.06 
L 286.036341 74.06 
" style="fill:none;stroke:#5e9bff;stroke-linecap:square;stroke-width:1.5;"/>
   </g>
   <g id="line2d_24">
    <path clip-path="url(#pef0724c684)" d="M 289.880238 74.06 
L 289.880238 74.06 
" style="fill:none;stroke:#5e9bff;stroke-linecap:square;stroke-width:1.5;"/>
   </g>
   <g id="line2d_25">
    <path clip-path="url(#pef0724c684)" d="M 293.724135 74.06 
L 293.724135 74.06 
" style="fill:none;stroke:#5e9bff;stroke-linecap:square;stroke-width:1.5;"/>
   </g>
   <g id="line2d_26">
    <path clip-path="url(#pef0724c684)" d="M 297.568031 74.06 
L 297.568031 74.06 
" style="fill:none;stroke:#5e9bff;stroke-linecap:square;stroke-width:1.5;"/>
   </g>
   <g id="line2d_27">
    <path clip-path="url(#pef0724c684)" d="M 301.411928 74.06 
L 301.411928 74.06 
" style="fill:none;stroke:#5e9bff;stroke-linecap:square;stroke-width:1.5;"/>
   </g>
   <g id="line2d_28">
    <path clip-path="url(#pef0724c684)" d="M 305.255825 74.06 
L 305.255825 74.06 
" style="fill:none;stroke:#5e9bff;stroke-linecap:square;stroke-width:1.5;"/>
   </g>
   <g id="line2d_29">
    <path clip-path="url(#pef0724c684)" d="M 309.099721 74.06 
L 309.099721 74.06 
" style="fill:none;stroke:#5e9bff;stroke-linecap:square;stroke-width:1.5;"/>
   </g>
   <g id="line2d_30">
    <path clip-path="url(#pef0724c684)" d="M 312.943618 74.06 
L 312.943618 74.06 
" style="fill:none;stroke:#5e9bff;stroke-linecap:square;stroke-width:1.5;"/>
   </g>
   <g id="line2d_31">
    <path clip-path="url(#pef0724c684)" d="M 316.787514 74.06 
L 316.787514 74.06 
" style="fill:none;stroke:#5e9bff;stroke-linecap:square;stroke-width:1.5;"/>
   </g>
   <g id="line2d_32">
    <path clip-path="url(#pef0724c684)" d="M 320.631411 74.06 
L 320.631411 74.06 
" style="fill:none;stroke:#5e9bff;stroke-linecap:square;stroke-width:1.5;"/>
   </g>
   <g id="line2d_33">
    <path clip-path="url(#pef0724c684)" d="M 324.475308 74.06 
L 324.475308 74.06 
" style="fill:none;stroke:#5e9bff;stroke-linecap:square;stroke-width:1.5;"/>
   </g>
   <g id="line2d_34">
    <path clip-path="url(#pef0724c684)" d="M 328.319204 74.06 
L 328.319204 74.06 
" style="fill:none;stroke:#5e9bff;stroke-linecap:square;stroke-width:1.5;"/>
   </g>
   <g id="line2d_35">
    <path clip-path="url(#pef0724c684)" d="M 332.163101 74.06 
L 332.163101 74.06 
" style="fill:none;stroke:#5e9bff;stroke-linecap:square;stroke-width:1.5;"/>
   </g>
   <g id="line2d_36">
    <path clip-path="url(#pef0724c684)" d="M 336.006998 74.06 
L 336.006998 74.06 
" style="fill:none;stroke:#5e9bff;stroke-linecap:square;stroke-width:1.5;"/>
   </g>
   <g id="line2d_37">
    <path clip-path="url(#pef0724c684)" d="M 339.850894 74.06 
L 339.850894 74.06 
" style="fill:none;stroke:#5e9bff;stroke-linecap:square;stroke-width:1.5;"/>
   </g>
   <g id="line2d_38">
    <path clip-path="url(#pef0724c684)" d="M 343.694791 74.06 
L 343.694791 74.06 
" style="fill:none;stroke:#5e9bff;stroke-linecap:square;stroke-width:1.5;"/>
   </g>
   <g id="line2d_39">
    <path clip-path="url(#pef0724c684)" d="M 347.538688 74.06 
L 347.538688 74.06 
" style="fill:none;stroke:#5e9bff;stroke-linecap:square;stroke-width:1.5;"/>
   </g>
   <g id="line2d_40">
    <path clip-path="url(#pef0724c684)" d="M 351.382584 74.06 
L 351.382584 74.06 
" style="fill:none;stroke:#5e9bff;stroke-linecap:square;stroke-width:1.5;"/>
   </g>
   <g id="line2d_41">
    <path clip-path="url(#pef0724c684)" d="M 355.226481 74.06 
L 355.226481 74.06 
" style="fill:none;stroke:#5e9bff;stroke-linecap:square;stroke-width:1.5;"/>
   </g>
   <g id="line2d_42">
    <path clip-path="url(#pef0724c684)" d="M 359.070377 74.06 
L 359.070377 74.06 
" style="fill:none;stroke:#5e9bff;stroke-linecap:square;stroke-width:1.5;"/>
   </g>
   <g id="line2d_43">
    <path clip-path="url(#pef0724c684)" d="M 362.914274 74.06 
L 362.914274 14.76 
" style="fill:none;stroke:#5e9bff;stroke-linecap:square;stroke-width:1.5;"/>
   </g>
   <g id="line2d_44">
    <path clip-path="url(#pef0724c684)" d="M 366.758171 74.06 
L 366.758171 74.06 
" style="fill:none;stroke:#5e9bff;stroke-linecap:square;stroke-width:1.5;"/>
   </g>
   <g id="line2d_45">
    <path clip-path="url(#pef0724c684)" d="M 370.602067 74.06 
L 370.602067 74.06 
" style="fill:none;stroke:#5e9bff;stroke-linecap:square;stroke-width:1.5;"/>
   </g>
   <g id="line2d_46">
    <path clip-path="url(#pef0724c684)" d="M 374.445964 74.06 
L 374.445964 74.06 
" style="fill:none;stroke:#5e9bff;stroke-linecap:square;stroke-width:1.5;"/>
   </g>
   <g id="line2d_47">
    <path clip-path="url(#pef0724c684)" d="M 378.289861 74.06 
L 378.289861 74.06 
" style="fill:none;stroke:#5e9bff;stroke-linecap:square;stroke-width:1.5;"/>
   </g>
   <g id="line2d_48">
    <path clip-path="url(#pef0724c684)" d="M 382.133757 74.06 
L 382.133757 74.06 
" style="fill:none;stroke:#5e9bff;stroke-linecap:square;stroke-width:1.5;"/>
   </g>
   <g id="line2d_49">
    <path clip-path="url(#pef0724c684)" d="M 385.977654 74.06 
L 385.977654 74.06 
" style="fill:none;stroke:#5e9bff;stroke-linecap:square;stroke-width:1.5;"/>
   </g>
   <g id="line2d_50">
    <path clip-path="url(#pef0724c684)" d="M 389.82155 74.06 
L 389.82155 74.06 
" style="fill:none;stroke:#5e9bff;stroke-linecap:square;stroke-width:1.5;"/>
   </g>
   <g id="line2d_51">
    <path clip-path="url(#pef0724c684)" d="M 393.665447 74.06 
L 393.665447 74.06 
" style="fill:none;stroke:#5e9bff;stroke-linecap:square;stroke-width:1.5;"/>
   </g>
   <g id="line2d_52">
    <path clip-path="url(#pef0724c684)" d="M 397.509344 74.06 
L 397.509344 74.06 
" style="fill:none;stroke:#5e9bff;stroke-linecap:square;stroke-width:1.5;"/>
   </g>
   <g id="line2d_53">
    <path clip-path="url(#pef0724c684)" d="M 401.35324 74.06 
L 401.35324 74.06 
" style="fill:none;stroke:#5e9bff;stroke-linecap:square;stroke-width:1.5;"/>
   </g>
   <g id="line2d_54">
    <path clip-path="url(#pef0724c684)" d="M 405.197137 74.06 
L 405.197137 74.06 
" style="fill:none;stroke:#5e9bff;stroke-linecap:square;stroke-width:1.5;"/>
   </g>
   <g id="line2d_55">
    <path clip-path="url(#pef0724c684)" d="M 409.041034 74.06 
L 409.041034 74.06 
" style="fill:none;stroke:#5e9bff;stroke-linecap:square;stroke-width:1.5;"/>
   </g>
   <g id="line2d_56">
    <path clip-path="url(#pef0724c684)" d="M 412.88493 74.06 
L 412.88493 74.06 
" style="fill:none;stroke:#5e9bff;stroke-linecap:square;stroke-width:1.5;"/>
   </g>
   <g id="line2d_57">
    <path clip-path="url(#pef0724c684)" d="M 416.728827 74.06 
L 416.728827 74.06 
" style="fill:none;stroke:#5e9bff;stroke-linecap:square;stroke-width:1.5;"/>
   </g>
   <g id="line2d_58">
    <path clip-path="url(#pef0724c684)" d="M 420.572724 74.06 
L 420.572724 74.06 
" style="fill:none;stroke:#5e9bff;stroke-linecap:square;stroke-width:1.5;"/>
   </g>
   <g id="line2d_59">
    <path clip-path="url(#pef0724c684)" d="M 424.41662 74.06 
L 424.41662 74.06 
" style="fill:none;stroke:#5e9bff;stroke-linecap:square;stroke-width:1.5;"/>
   </g>
   <g id="line2d_60">
    <path clip-path="url(#pef0724c684)" d="M 428.260517 74.06 
L 428.260517 74.06 
" style="fill:none;stroke:#5e9bff;stroke-linecap:square;stroke-width:1.5;"/>
   </g>
   <g id="line2d_61">
    <path clip-path="url(#pef0724c684)" d="M 432.104413 74.06 
L 432.104413 74.06 
" style="fill:none;stroke:#5e9bff;stroke-linecap:square;stroke-width:1.5;"/>
   </g>
   <g id="line2d_62">
    <path clip-path="url(#pef0724c684)" d="M 435.94831 74.06 
L 435.94831 74.06 
" style="fill:none;stroke:#5e9bff;stroke-linecap:square;stroke-width:1.5;"/>
   </g>
   <g id="line2d_63">
    <path clip-path="url(#pef0724c684)" d="M 439.792207 74.06 
L 439.792207 74.06 
" style="fill:none;stroke:#5e9bff;stroke-linecap:square;stroke-width:1.5;"/>
   </g>
   <g id="line2d_64">
    <path clip-path="url(#pef0724c684)" d="M 286.036341 74.06 
L 439.792207 74.06 
" style="fill:none;stroke:#808080;stroke-linecap:square;"/>
   </g>
   <g id="patch_6">
    <path d="M 278.348548 133.36 
L 278.348548 14.76 
" style="fill:none;stroke:#000000;stroke-linecap:square;stroke-linejoin:miter;stroke-width:0.8;"/>
   </g>
   <g id="patch_7">
    <path d="M 278.348548 133.36 
L 447.48 133.36 
" style="fill:none;stroke:#000000;stroke-linecap:square;stroke-linejoin:miter;stroke-width:0.8;"/>
   </g>
  </g>
  <g id="axes_3">
   <g id="patch_8">
    <path d="M 49.52 300.76 
L 218.651452 300.76 
L 218.651452 182.16 
L 49.52 182.16 
z
" style="fill:#ffffff;"/>
   </g>
   <g id="matplotlib.axis_5">
    <g id="xtick_11">
     <g id="line2d_65">
      <g>
       <use style="stroke:#000000;stroke-width:0.8;" x="57.207793" xlink:href="#m35fed5f019" y="300.76"/>
      </g>
     </g>
     <g id="text_25">
      <!-- 0 -->
      <g transform="translate(54.026543 315.358437)scale(0.1 -0.1)">
       <use xlink:href="#DejaVuSans-48"/>
      </g>
     </g>
    </g>
    <g id="xtick_12">
     <g id="line2d_66">
      <g>
       <use style="stroke:#000000;stroke-width:0.8;" x="96.035032" xlink:href="#m35fed5f019" y="300.76"/>
      </g>
     </g>
     <g id="text_26">
      <!-- 25 -->
      <g transform="translate(89.672532 315.358437)scale(0.1 -0.1)">
       <use xlink:href="#DejaVuSans-50"/>
       <use x="63.623047" xlink:href="#DejaVuSans-53"/>
      </g>
     </g>
    </g>
    <g id="xtick_13">
     <g id="line2d_67">
      <g>
       <use style="stroke:#000000;stroke-width:0.8;" x="134.862271" xlink:href="#m35fed5f019" y="300.76"/>
      </g>
     </g>
     <g id="text_27">
      <!-- 50 -->
      <g transform="translate(128.499771 315.358437)scale(0.1 -0.1)">
       <use xlink:href="#DejaVuSans-53"/>
       <use x="63.623047" xlink:href="#DejaVuSans-48"/>
      </g>
     </g>
    </g>
    <g id="xtick_14">
     <g id="line2d_68">
      <g>
       <use style="stroke:#000000;stroke-width:0.8;" x="173.689509" xlink:href="#m35fed5f019" y="300.76"/>
      </g>
     </g>
     <g id="text_28">
      <!-- 75 -->
      <g transform="translate(167.327009 315.358437)scale(0.1 -0.1)">
       <use xlink:href="#DejaVuSans-55"/>
       <use x="63.623047" xlink:href="#DejaVuSans-53"/>
      </g>
     </g>
    </g>
    <g id="xtick_15">
     <g id="line2d_69">
      <g>
       <use style="stroke:#000000;stroke-width:0.8;" x="212.516748" xlink:href="#m35fed5f019" y="300.76"/>
      </g>
     </g>
     <g id="text_29">
      <!-- 100 -->
      <g transform="translate(202.972998 315.358437)scale(0.1 -0.1)">
       <use xlink:href="#DejaVuSans-49"/>
       <use x="63.623047" xlink:href="#DejaVuSans-48"/>
       <use x="127.246094" xlink:href="#DejaVuSans-48"/>
      </g>
     </g>
    </g>
    <g id="text_30">
     <!-- Sample index $t$ -->
     <g transform="translate(96.385726 329.038125)scale(0.1 -0.1)">
      <use transform="translate(0 0.015625)" xlink:href="#DejaVuSans-83"/>
      <use transform="translate(63.476562 0.015625)" xlink:href="#DejaVuSans-97"/>
      <use transform="translate(124.755859 0.015625)" xlink:href="#DejaVuSans-109"/>
      <use transform="translate(222.167969 0.015625)" xlink:href="#DejaVuSans-112"/>
      <use transform="translate(285.644531 0.015625)" xlink:href="#DejaVuSans-108"/>
      <use transform="translate(313.427734 0.015625)" xlink:href="#DejaVuSans-101"/>
      <use transform="translate(374.951172 0.015625)" xlink:href="#DejaVuSans-32"/>
      <use transform="translate(406.738281 0.015625)" xlink:href="#DejaVuSans-105"/>
      <use transform="translate(434.521484 0.015625)" xlink:href="#DejaVuSans-110"/>
      <use transform="translate(497.900391 0.015625)" xlink:href="#DejaVuSans-100"/>
      <use transform="translate(561.376953 0.015625)" xlink:href="#DejaVuSans-101"/>
      <use transform="translate(622.900391 0.015625)" xlink:href="#DejaVuSans-120"/>
      <use transform="translate(682.080078 0.015625)" xlink:href="#DejaVuSans-32"/>
      <use transform="translate(713.867188 0.015625)" xlink:href="#DejaVuSans-Oblique-116"/>
     </g>
    </g>
   </g>
   <g id="matplotlib.axis_6">
    <g id="ytick_11">
     <g id="line2d_70">
      <g>
       <use style="stroke:#000000;stroke-width:0.8;" x="49.52" xlink:href="#m1e3f277c26" y="300.76"/>
      </g>
     </g>
     <g id="text_31">
      <!-- −2 -->
      <g transform="translate(27.777813 304.559219)scale(0.1 -0.1)">
       <use xlink:href="#DejaVuSans-8722"/>
       <use x="83.789062" xlink:href="#DejaVuSans-50"/>
      </g>
     </g>
    </g>
    <g id="ytick_12">
     <g id="line2d_71">
      <g>
       <use style="stroke:#000000;stroke-width:0.8;" x="49.52" xlink:href="#m1e3f277c26" y="271.11"/>
      </g>
     </g>
     <g id="text_32">
      <!-- −1 -->
      <g transform="translate(27.777813 274.909219)scale(0.1 -0.1)">
       <use xlink:href="#DejaVuSans-8722"/>
       <use x="83.789062" xlink:href="#DejaVuSans-49"/>
      </g>
     </g>
    </g>
    <g id="ytick_13">
     <g id="line2d_72">
      <g>
       <use style="stroke:#000000;stroke-width:0.8;" x="49.52" xlink:href="#m1e3f277c26" y="241.46"/>
      </g>
     </g>
     <g id="text_33">
      <!-- 0 -->
      <g transform="translate(36.1575 245.259219)scale(0.1 -0.1)">
       <use xlink:href="#DejaVuSans-48"/>
      </g>
     </g>
    </g>
    <g id="ytick_14">
     <g id="line2d_73">
      <g>
       <use style="stroke:#000000;stroke-width:0.8;" x="49.52" xlink:href="#m1e3f277c26" y="211.81"/>
      </g>
     </g>
     <g id="text_34">
      <!-- 1 -->
      <g transform="translate(36.1575 215.609219)scale(0.1 -0.1)">
       <use xlink:href="#DejaVuSans-49"/>
      </g>
     </g>
    </g>
    <g id="ytick_15">
     <g id="line2d_74">
      <g>
       <use style="stroke:#000000;stroke-width:0.8;" x="49.52" xlink:href="#m1e3f277c26" y="182.16"/>
      </g>
     </g>
     <g id="text_35">
      <!-- 2 -->
      <g transform="translate(36.1575 185.959219)scale(0.1 -0.1)">
       <use xlink:href="#DejaVuSans-50"/>
      </g>
     </g>
    </g>
    <g id="text_36">
     <!-- Signal value $x_t$ -->
     <g transform="translate(21.677813 278.16)rotate(-90)scale(0.1 -0.1)">
      <use transform="translate(0 0.015625)" xlink:href="#DejaVuSans-83"/>
      <use transform="translate(63.476562 0.015625)" xlink:href="#DejaVuSans-105"/>
      <use transform="translate(91.259766 0.015625)" xlink:href="#DejaVuSans-103"/>
      <use transform="translate(154.736328 0.015625)" xlink:href="#DejaVuSans-110"/>
      <use transform="translate(218.115234 0.015625)" xlink:href="#DejaVuSans-97"/>
      <use transform="translate(279.394531 0.015625)" xlink:href="#DejaVuSans-108"/>
      <use transform="translate(307.177734 0.015625)" xlink:href="#DejaVuSans-32"/>
      <use transform="translate(338.964844 0.015625)" xlink:href="#DejaVuSans-118"/>
      <use transform="translate(398.144531 0.015625)" xlink:href="#DejaVuSans-97"/>
      <use transform="translate(459.423828 0.015625)" xlink:href="#DejaVuSans-108"/>
      <use transform="translate(487.207031 0.015625)" xlink:href="#DejaVuSans-117"/>
      <use transform="translate(550.585938 0.015625)" xlink:href="#DejaVuSans-101"/>
      <use transform="translate(612.109375 0.015625)" xlink:href="#DejaVuSans-32"/>
      <use transform="translate(643.896484 0.015625)" xlink:href="#DejaVuSans-Oblique-120"/>
      <use transform="translate(703.076172 -16.390625)scale(0.7)" xlink:href="#DejaVuSans-Oblique-116"/>
     </g>
    </g>
   </g>
   <g id="line2d_75">
    <path clip-path="url(#p764e06ae30)" d="M 57.207793 232.686648 
L 58.760883 225.364343 
L 60.313972 225.868071 
L 61.867062 235.223416 
L 63.420151 246.134624 
L 64.973241 252.277085 
L 66.526331 250.471428 
L 68.07942 240.174634 
L 69.63251 226.515425 
L 71.185599 220.839695 
L 72.738689 230.535297 
L 74.291778 249.042987 
L 75.844868 262.770727 
L 77.397957 264.951546 
L 78.951047 260.046666 
L 80.504137 254.951827 
L 82.057226 248.442776 
L 83.610316 237.364211 
L 85.163405 225.631051 
L 86.716495 218.556145 
L 88.269584 218.652245 
L 89.822674 224.690226 
L 91.375763 231.474293 
L 92.928853 237.305587 
L 94.481942 245.100542 
L 96.035032 255.328407 
L 97.588122 264.695629 
L 99.141211 267.478594 
L 100.694301 260.111059 
L 102.24739 247.29867 
L 103.80048 235.698647 
L 105.353569 227.433824 
L 106.906659 224.024562 
L 108.459748 226.262097 
L 110.012838 232.307206 
L 111.565927 239.997069 
L 113.119017 246.994537 
L 114.672107 250.891083 
L 116.225196 249.980181 
L 117.778286 243.825723 
L 119.331375 236.580732 
L 120.884465 235.00933 
L 122.437554 241.982066 
L 123.990644 253.853445 
L 125.543733 260.25678 
L 127.096823 251.003829 
L 128.649913 228.928801 
L 130.203002 210.632032 
L 131.756092 211.15273 
L 133.309181 230.206478 
L 134.862271 253.289225 
L 136.41536 266.743792 
L 137.96845 267.680398 
L 139.521539 257.904998 
L 141.074629 240.796597 
L 142.627718 225.333864 
L 144.180808 221.259822 
L 145.733898 229.491289 
L 147.286987 241.935024 
L 148.840077 251.122015 
L 150.393166 255.117561 
L 151.946256 252.362771 
L 153.499345 242.550971 
L 155.052435 231.064613 
L 156.605524 226.169449 
L 158.158614 232.068395 
L 159.711704 243.626551 
L 161.264793 251.674522 
L 162.817883 251.127741 
L 164.370972 244.133452 
L 165.924062 239.011323 
L 167.477151 240.699283 
L 169.030241 244.91722 
L 170.58333 244.971185 
L 172.13642 238.462205 
L 173.689509 228.972378 
L 175.242599 224.668137 
L 176.795689 231.585975 
L 178.348778 246.228174 
L 179.901868 257.788453 
L 181.454957 259.472661 
L 183.008047 253.278767 
L 184.561136 244.426255 
L 186.114226 237.472093 
L 187.667315 234.508158 
L 189.220405 235.181998 
L 190.773495 238.750903 
L 192.326584 241.319777 
L 193.879674 238.180324 
L 195.432763 231.457313 
L 196.985853 228.105599 
L 198.538942 233.3322 
L 200.092032 245.846033 
L 201.645121 258.606032 
L 203.198211 265.762139 
L 204.7513 264.083871 
L 206.30439 251.633873 
L 207.85748 232.153838 
L 209.410569 217.288735 
L 210.963659 217.858877 
" style="fill:none;stroke:#f7b57b;stroke-linecap:square;stroke-width:1.5;"/>
   </g>
   <g id="patch_9">
    <path d="M 49.52 300.76 
L 49.52 182.16 
" style="fill:none;stroke:#000000;stroke-linecap:square;stroke-linejoin:miter;stroke-width:0.8;"/>
   </g>
   <g id="patch_10">
    <path d="M 49.52 300.76 
L 218.651452 300.76 
" style="fill:none;stroke:#000000;stroke-linecap:square;stroke-linejoin:miter;stroke-width:0.8;"/>
   </g>
  </g>
  <g id="axes_4">
   <g id="patch_11">
    <path d="M 278.348548 300.76 
L 447.48 300.76 
L 447.48 182.16 
L 278.348548 182.16 
z
" style="fill:#ffffff;"/>
   </g>
   <g id="matplotlib.axis_7">
    <g id="xtick_16">
     <g id="line2d_76">
      <g>
       <use style="stroke:#000000;stroke-width:0.8;" x="286.036341" xlink:href="#m35fed5f019" y="300.76"/>
      </g>
     </g>
     <g id="text_37">
      <!-- −20 -->
      <g transform="translate(275.483998 315.358437)scale(0.1 -0.1)">
       <use xlink:href="#DejaVuSans-8722"/>
       <use x="83.789062" xlink:href="#DejaVuSans-50"/>
       <use x="147.412109" xlink:href="#DejaVuSans-48"/>
      </g>
     </g>
    </g>
    <g id="xtick_17">
     <g id="line2d_77">
      <g>
       <use style="stroke:#000000;stroke-width:0.8;" x="324.475308" xlink:href="#m35fed5f019" y="300.76"/>
      </g>
     </g>
     <g id="text_38">
      <!-- −10 -->
      <g transform="translate(313.922964 315.358437)scale(0.1 -0.1)">
       <use xlink:href="#DejaVuSans-8722"/>
       <use x="83.789062" xlink:href="#DejaVuSans-49"/>
       <use x="147.412109" xlink:href="#DejaVuSans-48"/>
      </g>
     </g>
    </g>
    <g id="xtick_18">
     <g id="line2d_78">
      <g>
       <use style="stroke:#000000;stroke-width:0.8;" x="362.914274" xlink:href="#m35fed5f019" y="300.76"/>
      </g>
     </g>
     <g id="text_39">
      <!-- 0 -->
      <g transform="translate(359.733024 315.358437)scale(0.1 -0.1)">
       <use xlink:href="#DejaVuSans-48"/>
      </g>
     </g>
    </g>
    <g id="xtick_19">
     <g id="line2d_79">
      <g>
       <use style="stroke:#000000;stroke-width:0.8;" x="401.35324" xlink:href="#m35fed5f019" y="300.76"/>
      </g>
     </g>
     <g id="text_40">
      <!-- 10 -->
      <g transform="translate(394.99074 315.358437)scale(0.1 -0.1)">
       <use xlink:href="#DejaVuSans-49"/>
       <use x="63.623047" xlink:href="#DejaVuSans-48"/>
      </g>
     </g>
    </g>
    <g id="xtick_20">
     <g id="line2d_80">
      <g>
       <use style="stroke:#000000;stroke-width:0.8;" x="439.792207" xlink:href="#m35fed5f019" y="300.76"/>
      </g>
     </g>
     <g id="text_41">
      <!-- 20 -->
      <g transform="translate(433.429707 315.358437)scale(0.1 -0.1)">
       <use xlink:href="#DejaVuSans-50"/>
       <use x="63.623047" xlink:href="#DejaVuSans-48"/>
      </g>
     </g>
    </g>
    <g id="text_42">
     <!-- Lag $t-s$ -->
     <g transform="translate(341.564274 329.01625)scale(0.1 -0.1)">
      <use transform="translate(0 0.09375)" xlink:href="#DejaVuSans-76"/>
      <use transform="translate(55.712891 0.09375)" xlink:href="#DejaVuSans-97"/>
      <use transform="translate(116.992188 0.09375)" xlink:href="#DejaVuSans-103"/>
      <use transform="translate(180.46875 0.09375)" xlink:href="#DejaVuSans-32"/>
      <use transform="translate(212.255859 0.09375)" xlink:href="#DejaVuSans-Oblique-116"/>
      <use transform="translate(270.947266 0.09375)" xlink:href="#DejaVuSans-8722"/>
      <use transform="translate(374.21875 0.09375)" xlink:href="#DejaVuSans-Oblique-115"/>
     </g>
    </g>
   </g>
   <g id="matplotlib.axis_8">
    <g id="ytick_16">
     <g id="line2d_81">
      <g>
       <use style="stroke:#000000;stroke-width:0.8;" x="278.348548" xlink:href="#m1e3f277c26" y="300.76"/>
      </g>
     </g>
     <g id="text_43">
      <!-- −1.0 -->
      <g transform="translate(247.065736 304.559219)scale(0.1 -0.1)">
       <use xlink:href="#DejaVuSans-8722"/>
       <use x="83.789062" xlink:href="#DejaVuSans-49"/>
       <use x="147.412109" xlink:href="#DejaVuSans-46"/>
       <use x="179.199219" xlink:href="#DejaVuSans-48"/>
      </g>
     </g>
    </g>
    <g id="ytick_17">
     <g id="line2d_82">
      <g>
       <use style="stroke:#000000;stroke-width:0.8;" x="278.348548" xlink:href="#m1e3f277c26" y="271.11"/>
      </g>
     </g>
     <g id="text_44">
      <!-- −0.5 -->
      <g transform="translate(247.065736 274.909219)scale(0.1 -0.1)">
       <use xlink:href="#DejaVuSans-8722"/>
       <use x="83.789062" xlink:href="#DejaVuSans-48"/>
       <use x="147.412109" xlink:href="#DejaVuSans-46"/>
       <use x="179.199219" xlink:href="#DejaVuSans-53"/>
      </g>
     </g>
    </g>
    <g id="ytick_18">
     <g id="line2d_83">
      <g>
       <use style="stroke:#000000;stroke-width:0.8;" x="278.348548" xlink:href="#m1e3f277c26" y="241.46"/>
      </g>
     </g>
     <g id="text_45">
      <!-- 0.0 -->
      <g transform="translate(255.445423 245.259219)scale(0.1 -0.1)">
       <use xlink:href="#DejaVuSans-48"/>
       <use x="63.623047" xlink:href="#DejaVuSans-46"/>
       <use x="95.410156" xlink:href="#DejaVuSans-48"/>
      </g>
     </g>
    </g>
    <g id="ytick_19">
     <g id="line2d_84">
      <g>
       <use style="stroke:#000000;stroke-width:0.8;" x="278.348548" xlink:href="#m1e3f277c26" y="211.81"/>
      </g>
     </g>
     <g id="text_46">
      <!-- 0.5 -->
      <g transform="translate(255.445423 215.609219)scale(0.1 -0.1)">
       <use xlink:href="#DejaVuSans-48"/>
       <use x="63.623047" xlink:href="#DejaVuSans-46"/>
       <use x="95.410156" xlink:href="#DejaVuSans-53"/>
      </g>
     </g>
    </g>
    <g id="ytick_20">
     <g id="line2d_85">
      <g>
       <use style="stroke:#000000;stroke-width:0.8;" x="278.348548" xlink:href="#m1e3f277c26" y="182.16"/>
      </g>
     </g>
     <g id="text_47">
      <!-- 1.0 -->
      <g transform="translate(255.445423 185.959219)scale(0.1 -0.1)">
       <use xlink:href="#DejaVuSans-49"/>
       <use x="63.623047" xlink:href="#DejaVuSans-46"/>
       <use x="95.410156" xlink:href="#DejaVuSans-48"/>
      </g>
     </g>
    </g>
    <g id="text_48">
     <!-- Correlation -->
     <g transform="translate(240.986048 269.226406)rotate(-90)scale(0.1 -0.1)">
      <use xlink:href="#DejaVuSans-67"/>
      <use x="69.824219" xlink:href="#DejaVuSans-111"/>
      <use x="131.005859" xlink:href="#DejaVuSans-114"/>
      <use x="172.103516" xlink:href="#DejaVuSans-114"/>
      <use x="213.185547" xlink:href="#DejaVuSans-101"/>
      <use x="274.708984" xlink:href="#DejaVuSans-108"/>
      <use x="302.492188" xlink:href="#DejaVuSans-97"/>
      <use x="363.771484" xlink:href="#DejaVuSans-116"/>
      <use x="402.980469" xlink:href="#DejaVuSans-105"/>
      <use x="430.763672" xlink:href="#DejaVuSans-111"/>
      <use x="491.945312" xlink:href="#DejaVuSans-110"/>
     </g>
    </g>
   </g>
   <g id="line2d_86">
    <path clip-path="url(#pafe298097c)" d="M 286.036341 241.632722 
L 289.880238 240.400622 
L 293.724135 239.135571 
L 297.568031 237.835227 
L 301.411928 236.653185 
L 305.255825 236.063212 
L 309.099721 236.66773 
L 312.943618 238.635179 
L 316.787514 241.146291 
L 320.631411 242.563711 
L 324.475308 241.741474 
L 328.319204 239.739004 
L 332.163101 240.171849 
L 336.006998 246.914602 
L 339.850894 260.036047 
L 343.694791 273.145772 
L 347.538688 275.52515 
L 351.382584 259.364248 
L 355.226481 227.656546 
L 359.070377 195.665573 
L 362.914274 182.16 
L 366.758171 195.665573 
L 370.602067 227.656546 
L 374.445964 259.364248 
L 378.289861 275.52515 
L 382.133757 273.145772 
L 385.977654 260.036047 
L 389.82155 246.914602 
L 393.665447 240.171849 
L 397.509344 239.739004 
L 401.35324 241.741474 
L 405.197137 242.563711 
L 409.041034 241.146291 
L 412.88493 238.635179 
L 416.728827 236.66773 
L 420.572724 236.063212 
L 424.41662 236.653185 
L 428.260517 237.835227 
L 432.104413 239.135571 
L 435.94831 240.400622 
L 439.792207 241.632722 
" style="fill:none;"/>
   </g>
   <g id="line2d_87">
    <path clip-path="url(#pafe298097c)" d="M 286.036341 241.46 
L 286.036341 241.632722 
" style="fill:none;stroke:#f7b57b;stroke-linecap:square;stroke-width:1.5;"/>
   </g>
   <g id="line2d_88">
    <path clip-path="url(#pafe298097c)" d="M 289.880238 241.46 
L 289.880238 240.400622 
" style="fill:none;stroke:#f7b57b;stroke-linecap:square;stroke-width:1.5;"/>
   </g>
   <g id="line2d_89">
    <path clip-path="url(#pafe298097c)" d="M 293.724135 241.46 
L 293.724135 239.135571 
" style="fill:none;stroke:#f7b57b;stroke-linecap:square;stroke-width:1.5;"/>
   </g>
   <g id="line2d_90">
    <path clip-path="url(#pafe298097c)" d="M 297.568031 241.46 
L 297.568031 237.835227 
" style="fill:none;stroke:#f7b57b;stroke-linecap:square;stroke-width:1.5;"/>
   </g>
   <g id="line2d_91">
    <path clip-path="url(#pafe298097c)" d="M 301.411928 241.46 
L 301.411928 236.653185 
" style="fill:none;stroke:#f7b57b;stroke-linecap:square;stroke-width:1.5;"/>
   </g>
   <g id="line2d_92">
    <path clip-path="url(#pafe298097c)" d="M 305.255825 241.46 
L 305.255825 236.063212 
" style="fill:none;stroke:#f7b57b;stroke-linecap:square;stroke-width:1.5;"/>
   </g>
   <g id="line2d_93">
    <path clip-path="url(#pafe298097c)" d="M 309.099721 241.46 
L 309.099721 236.66773 
" style="fill:none;stroke:#f7b57b;stroke-linecap:square;stroke-width:1.5;"/>
   </g>
   <g id="line2d_94">
    <path clip-path="url(#pafe298097c)" d="M 312.943618 241.46 
L 312.943618 238.635179 
" style="fill:none;stroke:#f7b57b;stroke-linecap:square;stroke-width:1.5;"/>
   </g>
   <g id="line2d_95">
    <path clip-path="url(#pafe298097c)" d="M 316.787514 241.46 
L 316.787514 241.146291 
" style="fill:none;stroke:#f7b57b;stroke-linecap:square;stroke-width:1.5;"/>
   </g>
   <g id="line2d_96">
    <path clip-path="url(#pafe298097c)" d="M 320.631411 241.46 
L 320.631411 242.563711 
" style="fill:none;stroke:#f7b57b;stroke-linecap:square;stroke-width:1.5;"/>
   </g>
   <g id="line2d_97">
    <path clip-path="url(#pafe298097c)" d="M 324.475308 241.46 
L 324.475308 241.741474 
" style="fill:none;stroke:#f7b57b;stroke-linecap:square;stroke-width:1.5;"/>
   </g>
   <g id="line2d_98">
    <path clip-path="url(#pafe298097c)" d="M 328.319204 241.46 
L 328.319204 239.739004 
" style="fill:none;stroke:#f7b57b;stroke-linecap:square;stroke-width:1.5;"/>
   </g>
   <g id="line2d_99">
    <path clip-path="url(#pafe298097c)" d="M 332.163101 241.46 
L 332.163101 240.171849 
" style="fill:none;stroke:#f7b57b;stroke-linecap:square;stroke-width:1.5;"/>
   </g>
   <g id="line2d_100">
    <path clip-path="url(#pafe298097c)" d="M 336.006998 241.46 
L 336.006998 246.914602 
" style="fill:none;stroke:#f7b57b;stroke-linecap:square;stroke-width:1.5;"/>
   </g>
   <g id="line2d_101">
    <path clip-path="url(#pafe298097c)" d="M 339.850894 241.46 
L 339.850894 260.036047 
" style="fill:none;stroke:#f7b57b;stroke-linecap:square;stroke-width:1.5;"/>
   </g>
   <g id="line2d_102">
    <path clip-path="url(#pafe298097c)" d="M 343.694791 241.46 
L 343.694791 273.145772 
" style="fill:none;stroke:#f7b57b;stroke-linecap:square;stroke-width:1.5;"/>
   </g>
   <g id="line2d_103">
    <path clip-path="url(#pafe298097c)" d="M 347.538688 241.46 
L 347.538688 275.52515 
" style="fill:none;stroke:#f7b57b;stroke-linecap:square;stroke-width:1.5;"/>
   </g>
   <g id="line2d_104">
    <path clip-path="url(#pafe298097c)" d="M 351.382584 241.46 
L 351.382584 259.364248 
" style="fill:none;stroke:#f7b57b;stroke-linecap:square;stroke-width:1.5;"/>
   </g>
   <g id="line2d_105">
    <path clip-path="url(#pafe298097c)" d="M 355.226481 241.46 
L 355.226481 227.656546 
" style="fill:none;stroke:#f7b57b;stroke-linecap:square;stroke-width:1.5;"/>
   </g>
   <g id="line2d_106">
    <path clip-path="url(#pafe298097c)" d="M 359.070377 241.46 
L 359.070377 195.665573 
" style="fill:none;stroke:#f7b57b;stroke-linecap:square;stroke-width:1.5;"/>
   </g>
   <g id="line2d_107">
    <path clip-path="url(#pafe298097c)" d="M 362.914274 241.46 
L 362.914274 182.16 
" style="fill:none;stroke:#f7b57b;stroke-linecap:square;stroke-width:1.5;"/>
   </g>
   <g id="line2d_108">
    <path clip-path="url(#pafe298097c)" d="M 366.758171 241.46 
L 366.758171 195.665573 
" style="fill:none;stroke:#f7b57b;stroke-linecap:square;stroke-width:1.5;"/>
   </g>
   <g id="line2d_109">
    <path clip-path="url(#pafe298097c)" d="M 370.602067 241.46 
L 370.602067 227.656546 
" style="fill:none;stroke:#f7b57b;stroke-linecap:square;stroke-width:1.5;"/>
   </g>
   <g id="line2d_110">
    <path clip-path="url(#pafe298097c)" d="M 374.445964 241.46 
L 374.445964 259.364248 
" style="fill:none;stroke:#f7b57b;stroke-linecap:square;stroke-width:1.5;"/>
   </g>
   <g id="line2d_111">
    <path clip-path="url(#pafe298097c)" d="M 378.289861 241.46 
L 378.289861 275.52515 
" style="fill:none;stroke:#f7b57b;stroke-linecap:square;stroke-width:1.5;"/>
   </g>
   <g id="line2d_112">
    <path clip-path="url(#pafe298097c)" d="M 382.133757 241.46 
L 382.133757 273.145772 
" style="fill:none;stroke:#f7b57b;stroke-linecap:square;stroke-width:1.5;"/>
   </g>
   <g id="line2d_113">
    <path clip-path="url(#pafe298097c)" d="M 385.977654 241.46 
L 385.977654 260.036047 
" style="fill:none;stroke:#f7b57b;stroke-linecap:square;stroke-width:1.5;"/>
   </g>
   <g id="line2d_114">
    <path clip-path="url(#pafe298097c)" d="M 389.82155 241.46 
L 389.82155 246.914602 
" style="fill:none;stroke:#f7b57b;stroke-linecap:square;stroke-width:1.5;"/>
   </g>
   <g id="line2d_115">
    <path clip-path="url(#pafe298097c)" d="M 393.665447 241.46 
L 393.665447 240.171849 
" style="fill:none;stroke:#f7b57b;stroke-linecap:square;stroke-width:1.5;"/>
   </g>
   <g id="line2d_116">
    <path clip-path="url(#pafe298097c)" d="M 397.509344 241.46 
L 397.509344 239.739004 
" style="fill:none;stroke:#f7b57b;stroke-linecap:square;stroke-width:1.5;"/>
   </g>
   <g id="line2d_117">
    <path clip-path="url(#pafe298097c)" d="M 401.35324 241.46 
L 401.35324 241.741474 
" style="fill:none;stroke:#f7b57b;stroke-linecap:square;stroke-width:1.5;"/>
   </g>
   <g id="line2d_118">
    <path clip-path="url(#pafe298097c)" d="M 405.197137 241.46 
L 405.197137 242.563711 
" style="fill:none;stroke:#f7b57b;stroke-linecap:square;stroke-width:1.5;"/>
   </g>
   <g id="line2d_119">
    <path clip-path="url(#pafe298097c)" d="M 409.041034 241.46 
L 409.041034 241.146291 
" style="fill:none;stroke:#f7b57b;stroke-linecap:square;stroke-width:1.5;"/>
   </g>
   <g id="line2d_120">
    <path clip-path="url(#pafe298097c)" d="M 412.88493 241.46 
L 412.88493 238.635179 
" style="fill:none;stroke:#f7b57b;stroke-linecap:square;stroke-width:1.5;"/>
   </g>
   <g id="line2d_121">
    <path clip-path="url(#pafe298097c)" d="M 416.728827 241.46 
L 416.728827 236.66773 
" style="fill:none;stroke:#f7b57b;stroke-linecap:square;stroke-width:1.5;"/>
   </g>
   <g id="line2d_122">
    <path clip-path="url(#pafe298097c)" d="M 420.572724 241.46 
L 420.572724 236.063212 
" style="fill:none;stroke:#f7b57b;stroke-linecap:square;stroke-width:1.5;"/>
   </g>
   <g id="line2d_123">
    <path clip-path="url(#pafe298097c)" d="M 424.41662 241.46 
L 424.41662 236.653185 
" style="fill:none;stroke:#f7b57b;stroke-linecap:square;stroke-width:1.5;"/>
   </g>
   <g id="line2d_124">
    <path clip-path="url(#pafe298097c)" d="M 428.260517 241.46 
L 428.260517 237.835227 
" style="fill:none;stroke:#f7b57b;stroke-linecap:square;stroke-width:1.5;"/>
   </g>
   <g id="line2d_125">
    <path clip-path="url(#pafe298097c)" d="M 432.104413 241.46 
L 432.104413 239.135571 
" style="fill:none;stroke:#f7b57b;stroke-linecap:square;stroke-width:1.5;"/>
   </g>
   <g id="line2d_126">
    <path clip-path="url(#pafe298097c)" d="M 435.94831 241.46 
L 435.94831 240.400622 
" style="fill:none;stroke:#f7b57b;stroke-linecap:square;stroke-width:1.5;"/>
   </g>
   <g id="line2d_127">
    <path clip-path="url(#pafe298097c)" d="M 439.792207 241.46 
L 439.792207 241.632722 
" style="fill:none;stroke:#f7b57b;stroke-linecap:square;stroke-width:1.5;"/>
   </g>
   <g id="line2d_128">
    <path clip-path="url(#pafe298097c)" d="M 286.036341 241.46 
L 439.792207 241.46 
" style="fill:none;stroke:#808080;stroke-linecap:square;"/>
   </g>
   <g id="patch_12">
    <path d="M 278.348548 300.76 
L 278.348548 182.16 
" style="fill:none;stroke:#000000;stroke-linecap:square;stroke-linejoin:miter;stroke-width:0.8;"/>
   </g>
   <g id="patch_13">
    <path d="M 278.348548 300.76 
L 447.48 300.76 
" style="fill:none;stroke:#000000;stroke-linecap:square;stroke-linejoin:miter;stroke-width:0.8;"/>
   </g>
  </g>
 </g>
 <defs>
  <clipPath id="pe181be73a4">
   <rect height="118.6" width="169.131452" x="49.52" y="14.76"/>
  </clipPath>
  <clipPath id="pef0724c684">
   <rect height="118.6" width="169.131452" x="278.348548" y="14.76"/>
  </clipPath>
  <clipPath id="p764e06ae30">
   <rect height="118.6" width="169.131452" x="49.52" y="182.16"/>
  </clipPath>
  <clipPath id="pafe298097c">
   <rect height="118.6" width="169.131452" x="278.348548" y="182.16"/>
  </clipPath>
 </defs>
</svg>
